<?xml version="1.0" encoding="UTF-8" standalone="no"?><svg xmlns="http://www.w3.org/2000/svg" xmlns:xlink="http://www.w3.org/1999/xlink" contentStyleType="text/css" height="259px" preserveAspectRatio="none" style="width:734px;height:259px;background:#FFFFFF;" version="1.1" viewBox="0 0 734 259" width="734px" zoomAndPan="magnify"><defs/><g><rect fill="#FFFFFF" height="52.5938" rx="12.5" ry="12.5" style="stroke:#181818;stroke-width:1.5;" width="108" x="342" y="92.5938"/><text fill="#000000" font-family="sans-serif" font-size="14" lengthAdjust="spacing" textLength="88" x="352" y="115.5889">Crosscutting</text><text fill="#000000" font-family="sans-serif" font-size="14" lengthAdjust="spacing" textLength="67" x="362.5" y="131.8857">Concepts</text><rect fill="#FFFFFF" height="36.2969" rx="12.5" ry="12.5" style="stroke:#181818;stroke-width:1.5;" width="75" x="500" y="28.1484"/><text fill="#000000" font-family="sans-serif" font-size="14" lengthAdjust="spacing" textLength="55" x="510" y="51.1436">Security</text><text fill="#000000" font-family="sans-serif" font-size="14" lengthAdjust="spacing" textLength="46" x="628" y="41.9951">HTTPS</text><path d="M575,46.2969 L585,46.2969 C600,46.2969 600,37.1484 615,37.1484 L625,37.1484 " fill="none" style="stroke:#181818;stroke-width:1.0;"/><text fill="#000000" font-family="sans-serif" font-size="14" lengthAdjust="spacing" textLength="64" x="628" y="60.292">SASL-TLS</text><path d="M575,46.2969 L585,46.2969 C600,46.2969 600,55.4453 615,55.4453 L625,55.4453 " fill="none" style="stroke:#181818;stroke-width:1.0;"/><path d="M450,118.8906 L460,118.8906 C475,118.8906 475,46.2969 490,46.2969 L500,46.2969 " fill="none" style="stroke:#181818;stroke-width:1.0;"/><rect fill="#FFFFFF" height="52.5938" rx="12.5" ry="12.5" style="stroke:#181818;stroke-width:1.5;" width="97" x="500" y="84.4453"/><text fill="#000000" font-family="sans-serif" font-size="14" lengthAdjust="spacing" textLength="32" x="532.5" y="107.4404">User</text><text fill="#000000" font-family="sans-serif" font-size="14" lengthAdjust="spacing" textLength="77" x="510" y="123.7373">Experience</text><text fill="#000000" font-family="sans-serif" font-size="14" lengthAdjust="spacing" textLength="32" x="650" y="115.5889">GUIs</text><path d="M597,110.7422 L607,110.7422 C622,110.7422 622,110.7422 637,110.7422 L647,110.7422 " fill="none" style="stroke:#181818;stroke-width:1.0;"/><path d="M450,118.8906 L460,118.8906 C475,118.8906 475,110.7422 490,110.7422 L500,110.7422 " fill="none" style="stroke:#181818;stroke-width:1.0;"/><rect fill="#FFFFFF" height="52.5938" rx="12.5" ry="12.5" style="stroke:#181818;stroke-width:1.5;" width="87" x="500" y="157.0391"/><text fill="#000000" font-family="sans-serif" font-size="14" lengthAdjust="spacing" textLength="39" x="524" y="180.0342">Other</text><text fill="#000000" font-family="sans-serif" font-size="14" lengthAdjust="spacing" textLength="67" x="510" y="196.3311">Concepts</text><text fill="#000000" font-family="sans-serif" font-size="14" lengthAdjust="spacing" textLength="82" x="640" y="188.1826">Dataspaces</text><path d="M587,183.3359 L597,183.3359 C612,183.3359 612,183.3359 627,183.3359 L637,183.3359 " fill="none" style="stroke:#181818;stroke-width:1.0;"/><path d="M450,118.8906 L460,118.8906 C475,118.8906 475,183.3359 490,183.3359 L500,183.3359 " fill="none" style="stroke:#181818;stroke-width:1.0;"/><rect fill="#FFFFFF" height="52.5938" rx="12.5" ry="12.5" style="stroke:#181818;stroke-width:1.5;" width="106" x="186" y="20"/><text fill="#000000" font-family="sans-serif" font-size="14" lengthAdjust="spacing" textLength="86" x="196" y="42.9951">Architectural</text><text fill="#000000" font-family="sans-serif" font-size="14" lengthAdjust="spacing" textLength="58" x="210" y="59.292">Patterns</text><text fill="#000000" font-family="sans-serif" font-size="14" lengthAdjust="spacing" textLength="104" x="29" y="32.8467">Microfrontends</text><path d="M186,46.2969 L176,46.2969 C161,46.2969 161,28 146,28 L136,28 " fill="none" style="stroke:#181818;stroke-width:1.0;"/><text fill="#000000" font-family="sans-serif" font-size="14" lengthAdjust="spacing" textLength="54" x="79" y="51.1436">Adapter</text><path d="M186,46.2969 L176,46.2969 C161,46.2969 161,46.2969 146,46.2969 L136,46.2969 " fill="none" style="stroke:#181818;stroke-width:1.0;"/><text fill="#000000" font-family="sans-serif" font-size="14" lengthAdjust="spacing" textLength="123" x="10" y="69.4404">Publish/subscribe</text><path d="M186,46.2969 L176,46.2969 C161,46.2969 161,64.5938 146,64.5938 L136,64.5938 " fill="none" style="stroke:#181818;stroke-width:1.0;"/><path d="M342,118.8906 L332,118.8906 C317,118.8906 317,46.2969 302,46.2969 L292,46.2969 " fill="none" style="stroke:#181818;stroke-width:1.0;"/><rect fill="#FFFFFF" height="52.5938" rx="12.5" ry="12.5" style="stroke:#181818;stroke-width:1.5;" width="113" x="179" y="92.5938"/><text fill="#000000" font-family="sans-serif" font-size="14" lengthAdjust="spacing" textLength="93" x="189" y="115.5889">Development</text><text fill="#000000" font-family="sans-serif" font-size="14" lengthAdjust="spacing" textLength="56" x="207.5" y="131.8857">Process</text><text fill="#000000" font-family="sans-serif" font-size="14" lengthAdjust="spacing" textLength="78" x="48" y="114.5889">Test-driven</text><path d="M179,118.8906 L169,118.8906 C154,118.8906 154,109.7422 139,109.7422 L129,109.7422 " fill="none" style="stroke:#181818;stroke-width:1.0;"/><text fill="#000000" font-family="sans-serif" font-size="14" lengthAdjust="spacing" textLength="39" x="87" y="132.8857">CI/CD</text><path d="M179,118.8906 L169,118.8906 C154,118.8906 154,128.0391 139,128.0391 L129,128.0391 " fill="none" style="stroke:#181818;stroke-width:1.0;"/><path d="M342,118.8906 L332,118.8906 C317,118.8906 317,118.8906 302,118.8906 L292,118.8906 " fill="none" style="stroke:#181818;stroke-width:1.0;"/><rect fill="#FFFFFF" height="52.5938" rx="12.5" ry="12.5" style="stroke:#181818;stroke-width:1.5;" width="73" x="219" y="165.1875"/><text fill="#000000" font-family="sans-serif" font-size="14" lengthAdjust="spacing" textLength="53" x="229" y="188.1826">Domain</text><text fill="#000000" font-family="sans-serif" font-size="14" lengthAdjust="spacing" textLength="50" x="230.5" y="204.4795">Models</text><text fill="#000000" font-family="sans-serif" font-size="14" lengthAdjust="spacing" textLength="25" x="141" y="178.0342">CIM</text><path d="M219,191.4844 L209,191.4844 C194,191.4844 194,173.1875 179,173.1875 L169,173.1875 " fill="none" style="stroke:#181818;stroke-width:1.0;"/><text fill="#000000" font-family="sans-serif" font-size="14" lengthAdjust="spacing" textLength="45" x="121" y="196.3311">SAREF</text><path d="M219,191.4844 L209,191.4844 C194,191.4844 194,191.4844 179,191.4844 L169,191.4844 " fill="none" style="stroke:#181818;stroke-width:1.0;"/><text fill="#000000" font-family="sans-serif" font-size="14" lengthAdjust="spacing" textLength="41" x="125" y="214.6279">SGAM</text><path d="M219,191.4844 L209,191.4844 C194,191.4844 194,209.7813 179,209.7813 L169,209.7813 " fill="none" style="stroke:#181818;stroke-width:1.0;"/><path d="M342,118.8906 L332,118.8906 C317,118.8906 317,191.4844 302,191.4844 L292,191.4844 " fill="none" style="stroke:#181818;stroke-width:1.0;"/><rect fill="none" height="16.2969" id="_caption" style="stroke:none;stroke-width:1.0;" width="229" x="251" y="228.7813"/><text fill="#000000" font-family="sans-serif" font-size="14" lengthAdjust="spacing" textLength="229" x="251" y="241.7764">Mindmap: Crosscutting concepts</text><!--MD5=[c0257909c05343bd1c956f7ba886dc84]
@startmindmap crosscutting-concepts
'mindpam diagram
caption Mindmap: Crosscutting concepts

<style>
mindmapDiagram {
  node {
    BackgroundColor transparemt
    HorizontalAlignment center
  }
}
</style>

* Crosscutting\nConcepts

- - Architectural\nPatterns
- - -_ Microfrontends
- - -_ Adapter
- - -_ Publish/subscribe
- - Development\nProcess
- - -_ Test-driven
- - -_ CI/CD
- - Domain\nModels
- - -_ CIM
- - -_ SAREF
- - -_ SGAM

++ Security
+++_ HTTPS
+++_ SASL-TLS
++ User\nExperience
+++_ GUIs
++ Other\nConcepts
+++_ Dataspaces

@endmindmap

@startmindmap crosscutting-concepts
caption Mindmap: Crosscutting concepts

<style>
mindmapDiagram {
  node {
    BackgroundColor transparemt
    HorizontalAlignment center
  }
}
</style>

* Crosscutting\nConcepts

- - Architectural\nPatterns
- - -_ Microfrontends
- - -_ Adapter
- - -_ Publish/subscribe
- - Development\nProcess
- - -_ Test-driven
- - -_ CI/CD
- - Domain\nModels
- - -_ CIM
- - -_ SAREF
- - -_ SGAM

++ Security
+++_ HTTPS
+++_ SASL-TLS
++ User\nExperience
+++_ GUIs
++ Other\nConcepts
+++_ Dataspaces

@endmindmap

PlantUML version 1.2022.7(Mon Aug 22 19:01:30 CEST 2022)
(GPL source distribution)
Java Runtime: OpenJDK Runtime Environment
JVM: OpenJDK 64-Bit Server VM
Default Encoding: UTF-8
Language: en
Country: US
--></g></svg>