<?xml version="1.0" encoding="us-ascii" standalone="no"?><svg xmlns="http://www.w3.org/2000/svg" xmlns:xlink="http://www.w3.org/1999/xlink" contentStyleType="text/css" height="362px" preserveAspectRatio="none" style="width:604px;height:362px;background:#FFFFFF;" version="1.1" viewBox="0 0 604 362" width="604px" zoomAndPan="magnify"><defs/><g><rect fill="none" height="350.7734" style="stroke:#181818;stroke-width:0.5;" width="354.5" x="112.5" y="6"/><text fill="#000000" font-family="sans-serif" font-size="13" font-weight="bold" lengthAdjust="spacing" textLength="128" x="225.75" y="19.4951">Marketplace System</text><rect fill="none" height="350.7734" style="stroke:#181818;stroke-width:0.5;" width="119" x="479" y="6"/><text fill="#000000" font-family="sans-serif" font-size="13" font-weight="bold" lengthAdjust="spacing" textLength="85" x="496" y="19.4951">AIIDA System</text><line style="stroke:#181818;stroke-width:0.5;stroke-dasharray:5.0,5.0;" x1="38.5" x2="38.5" y1="103.9609" y2="350.7734"/><line style="stroke:#181818;stroke-width:0.5;stroke-dasharray:5.0,5.0;" x1="158.5" x2="158.5" y1="103.9609" y2="350.7734"/><line style="stroke:#181818;stroke-width:0.5;stroke-dasharray:5.0,5.0;" x1="283.5" x2="283.5" y1="103.9609" y2="350.7734"/><rect fill="#FFFFFF" height="107.4063" style="stroke:#181818;stroke-width:1.0;" width="10" x="278.5" y="225.3672"/><line style="stroke:#181818;stroke-width:0.5;stroke-dasharray:5.0,5.0;" x1="359.5" x2="359.5" y1="103.9609" y2="350.7734"/><line style="stroke:#181818;stroke-width:0.5;stroke-dasharray:5.0,5.0;" x1="425.5" x2="425.5" y1="103.9609" y2="350.7734"/><rect fill="#FFFFFF" height="30.3516" style="stroke:#181818;stroke-width:1.0;" width="10" x="420.5" y="272.0703"/><line style="stroke:#181818;stroke-width:0.5;stroke-dasharray:5.0,5.0;" x1="538.5" x2="538.5" y1="103.9609" y2="350.7734"/><text fill="#000000" font-family="sans-serif" font-size="14" lengthAdjust="spacing" textLength="61" x="5" y="100.8848">Customer</text><ellipse cx="38.5" cy="34.8516" fill="none" rx="8" ry="8" style="stroke:#181818;stroke-width:0.5;"/><path d="M38.5,42.8516 L38.5,69.8516 M25.5,50.8516 L51.5,50.8516 M38.5,69.8516 L25.5,84.8516 M38.5,69.8516 L51.5,84.8516 " fill="none" style="stroke:#181818;stroke-width:0.5;"/><rect fill="none" height="49.2188" rx="2.5" ry="2.5" style="stroke:#181818;stroke-width:0.5;" width="84" x="116.5" y="53.7422"/><text fill="#000000" font-family="sans-serif" font-size="14" lengthAdjust="spacing" textLength="61" x="126" y="75.2754">Customer</text><text fill="#000000" font-family="sans-serif" font-size="14" lengthAdjust="spacing" textLength="70" x="123.5" y="92.8848">Mobile App</text><rect fill="none" height="49.2188" rx="2.5" ry="2.5" style="stroke:#181818;stroke-width:0.5;" width="95" x="236" y="53.7422"/><text fill="#000000" font-family="sans-serif" font-size="14" lengthAdjust="spacing" textLength="77" x="243" y="75.2754">Marketplace</text><text fill="#000000" font-family="sans-serif" font-size="14" lengthAdjust="spacing" textLength="69" x="249" y="92.8848">Application</text><rect fill="none" height="31.6094" rx="2.5" ry="2.5" style="stroke:#181818;stroke-width:0.5;" width="37" x="341" y="71.3516"/><text fill="#000000" font-family="sans-serif" font-size="14" lengthAdjust="spacing" textLength="23" x="348" y="92.8848">IAM</text><rect fill="none" height="31.6094" rx="2.5" ry="2.5" style="stroke:#181818;stroke-width:0.5;" width="75" x="388" y="71.3516"/><text fill="#000000" font-family="sans-serif" font-size="14" lengthAdjust="spacing" textLength="61" x="395" y="92.8848">Database</text><rect fill="none" height="49.2188" rx="2.5" ry="2.5" style="stroke:#181818;stroke-width:0.5;" width="111" x="483" y="53.7422"/><text fill="#000000" font-family="sans-serif" font-size="14" lengthAdjust="spacing" textLength="34" x="519.5" y="75.2754">AIIDA</text><text fill="#000000" font-family="sans-serif" font-size="14" lengthAdjust="spacing" textLength="97" x="490" y="92.8848">Embedded App</text><polygon fill="#181818" points="146.5,130.3125,156.5,134.3125,146.5,138.3125" style="stroke:#181818;stroke-width:1.0;"/><line style="stroke:#181818;stroke-width:1.0;" x1="38.5" x2="152.5" y1="134.3125" y2="134.3125"/><text fill="#000000" font-family="sans-serif" font-size="13" font-weight="bold" lengthAdjust="spacing" textLength="7" x="45.5" y="129.4561">1</text><text fill="#000000" font-family="sans-serif" font-size="13" lengthAdjust="spacing" textLength="85" x="56.5" y="129.4561">Register AIIDA</text><polygon fill="#181818" points="526.5,160.6641,536.5,164.6641,526.5,168.6641" style="stroke:#181818;stroke-width:1.0;"/><line style="stroke:#181818;stroke-width:1.0;" x1="158.5" x2="532.5" y1="164.6641" y2="164.6641"/><text fill="#000000" font-family="sans-serif" font-size="13" font-weight="bold" lengthAdjust="spacing" textLength="7" x="165.5" y="159.8076">2</text><text fill="#000000" font-family="sans-serif" font-size="13" lengthAdjust="spacing" textLength="152" x="176.5" y="159.8076">Request AIIDA information</text><polygon fill="#181818" points="169.5,191.0156,159.5,195.0156,169.5,199.0156" style="stroke:#181818;stroke-width:1.0;"/><line style="stroke:#181818;stroke-width:1.0;" x1="163.5" x2="537.5" y1="195.0156" y2="195.0156"/><text fill="#000000" font-family="sans-serif" font-size="13" font-weight="bold" lengthAdjust="spacing" textLength="7" x="175.5" y="190.1592">3</text><text fill="#000000" font-family="sans-serif" font-size="13" lengthAdjust="spacing" textLength="146" x="186.5" y="190.1592">Provide AIIDA information</text><polygon fill="#181818" points="266.5,221.3672,276.5,225.3672,266.5,229.3672" style="stroke:#181818;stroke-width:1.0;"/><line style="stroke:#181818;stroke-width:1.0;" x1="158.5" x2="272.5" y1="225.3672" y2="225.3672"/><text fill="#000000" font-family="sans-serif" font-size="13" font-weight="bold" lengthAdjust="spacing" textLength="7" x="165.5" y="220.5107">4</text><text fill="#000000" font-family="sans-serif" font-size="13" lengthAdjust="spacing" textLength="85" x="176.5" y="220.5107">Register AIIDA</text><polygon fill="#181818" points="408.5,268.0703,418.5,272.0703,408.5,276.0703" style="stroke:#181818;stroke-width:1.0;"/><line style="stroke:#181818;stroke-width:1.0;" x1="288.5" x2="414.5" y1="272.0703" y2="272.0703"/><text fill="#000000" font-family="sans-serif" font-size="13" font-weight="bold" lengthAdjust="spacing" textLength="7" x="295.5" y="259.0381">5</text><text fill="#000000" font-family="sans-serif" font-size="13" lengthAdjust="spacing" textLength="68" x="306.5" y="250.8623">Store AIIDA</text><text fill="#000000" font-family="sans-serif" font-size="13" lengthAdjust="spacing" textLength="63" x="306.5" y="267.2139">information</text><line style="stroke:#181818;stroke-width:1.0;" x1="289.5" x2="299.5" y1="302.4219" y2="298.4219"/><line style="stroke:#181818;stroke-width:1.0;" x1="289.5" x2="299.5" y1="302.4219" y2="306.4219"/><line style="stroke:#181818;stroke-width:1.0;stroke-dasharray:2.0,2.0;" x1="288.5" x2="419.5" y1="302.4219" y2="302.4219"/><text fill="#000000" font-family="sans-serif" font-size="13" font-weight="bold" lengthAdjust="spacing" textLength="7" x="305.5" y="297.5654">6</text><text fill="#000000" font-family="sans-serif" font-size="13" lengthAdjust="spacing" textLength="19" x="316.5" y="297.5654">OK</text><line style="stroke:#181818;stroke-width:1.0;" x1="159.5" x2="169.5" y1="332.7734" y2="328.7734"/><line style="stroke:#181818;stroke-width:1.0;" x1="159.5" x2="169.5" y1="332.7734" y2="336.7734"/><line style="stroke:#181818;stroke-width:1.0;stroke-dasharray:2.0,2.0;" x1="158.5" x2="277.5" y1="332.7734" y2="332.7734"/><text fill="#000000" font-family="sans-serif" font-size="13" font-weight="bold" lengthAdjust="spacing" textLength="7" x="175.5" y="327.917">7</text><text fill="#000000" font-family="sans-serif" font-size="13" lengthAdjust="spacing" textLength="19" x="186.5" y="327.917">OK</text><!--SRC=[ZLB9JiCm4BtxAuPmxWzmg1HQ3XMggEWrbuazL5RZ1NjIKH3_ZfCqpKA5o26I_PQPzv9urDPZG0EHpnMbTz2IQrE9E23qNfEL15y2O8U1jTGUBJ-YF1w2gwrQkSe5u80s9WbPJiHSiWj_KRw5m9gThKr9GTpvW0U3mEG-4wscX3OEaAtgoCvGo00ZoCj1bEu3iYs68x6lC2stFqScay7zT0q_x3jOGM6thjGfR-vzwulUpybZyy8cOgKbidQs5PW1dGit-RQbQ3HpQ8sC9KPgSNKv2B8AKXxHXSetctN-hpWTix1FgK6bI0rfj5OusFQbmMBP18K7UAM3Jlu1MWlHN3PO8slHzC4ZTo1e- -Q2QPEBZd6rsGLtqefk4Jl7KKitfahM9sIQT3bM98E-ewJUfx-X7rNOoR3UwDheLRPOBETRl3mBHRybay6DgeiuPOytRPuV]--></g></svg>