<?xml version="1.0" encoding="us-ascii" standalone="no"?><svg xmlns="http://www.w3.org/2000/svg" xmlns:xlink="http://www.w3.org/1999/xlink" contentStyleType="text/css" height="292px" preserveAspectRatio="none" style="width:570px;height:292px;background:#FFFFFF;" version="1.1" viewBox="0 0 570 292" width="570px" zoomAndPan="magnify"><defs/><g><rect fill="none" height="280.2266" style="stroke:#181818;stroke-width:0.5;" width="454" x="110" y="6"/><text fill="#000000" font-family="sans-serif" font-size="13" font-weight="bold" lengthAdjust="spacing" textLength="151" x="261.5" y="18.0669">Marketplace System</text><line style="stroke:#181818;stroke-width:0.5;stroke-dasharray:5.0,5.0;" x1="51" x2="51" y1="101.4297" y2="280.2266"/><line style="stroke:#181818;stroke-width:0.5;stroke-dasharray:5.0,5.0;" x1="163" x2="163" y1="101.4297" y2="280.2266"/><line style="stroke:#181818;stroke-width:0.5;stroke-dasharray:5.0,5.0;" x1="337" x2="337" y1="101.4297" y2="280.2266"/><rect fill="#FFFFFF" height="102.5313" style="stroke:#181818;stroke-width:1.0;" width="10" x="332" y="159.6953"/><line style="stroke:#181818;stroke-width:0.5;stroke-dasharray:5.0,5.0;" x1="520" x2="520" y1="101.4297" y2="280.2266"/><rect fill="#FFFFFF" height="29.1328" style="stroke:#181818;stroke-width:1.0;" width="10" x="515" y="203.9609"/><text fill="#000000" font-family="sans-serif" font-size="14" lengthAdjust="spacing" textLength="86" x="5" y="98.1279">Eligible Party</text><ellipse cx="51" cy="33.6328" fill="none" rx="8" ry="8" style="stroke:#181818;stroke-width:0.5;"/><path d="M51,41.6328 L51,68.6328 M38,49.6328 L64,49.6328 M51,68.6328 L38,83.6328 M51,68.6328 L64,83.6328 " fill="none" style="stroke:#181818;stroke-width:0.5;"/><rect fill="none" height="30.2969" rx="2.5" ry="2.5" style="stroke:#181818;stroke-width:0.5;" width="98" x="114" y="70.1328"/><text fill="#000000" font-family="sans-serif" font-size="14" lengthAdjust="spacing" textLength="84" x="121" y="90.1279">EP Web App</text><rect fill="none" height="46.5938" rx="2.5" ry="2.5" style="stroke:#181818;stroke-width:0.5;" width="102" x="286" y="53.8359"/><text fill="#000000" font-family="sans-serif" font-size="14" lengthAdjust="spacing" textLength="84" x="293" y="73.8311">Marketplace</text><text fill="#000000" font-family="sans-serif" font-size="14" lengthAdjust="spacing" textLength="75" x="299.5" y="90.1279">Application</text><rect fill="none" height="30.2969" rx="2.5" ry="2.5" style="stroke:#181818;stroke-width:0.5;" width="80" x="480" y="70.1328"/><text fill="#000000" font-family="sans-serif" font-size="14" lengthAdjust="spacing" textLength="66" x="487" y="90.1279">Database</text><polygon fill="#181818" points="151,126.5625,161,130.5625,151,134.5625" style="stroke:#181818;stroke-width:1.0;"/><line style="stroke:#181818;stroke-width:1.0;" x1="51" x2="157" y1="130.5625" y2="130.5625"/><text fill="#000000" font-family="sans-serif" font-size="13" font-weight="bold" lengthAdjust="spacing" textLength="9" x="58" y="125.4966">1</text><text fill="#000000" font-family="sans-serif" font-size="13" lengthAdjust="spacing" textLength="75" x="71" y="125.4966">Fill out form</text><polygon fill="#181818" points="320,155.6953,330,159.6953,320,163.6953" style="stroke:#181818;stroke-width:1.0;"/><line style="stroke:#181818;stroke-width:1.0;" x1="163" x2="326" y1="159.6953" y2="159.6953"/><text fill="#000000" font-family="sans-serif" font-size="13" font-weight="bold" lengthAdjust="spacing" textLength="9" x="170" y="154.6294">2</text><text fill="#000000" font-family="sans-serif" font-size="13" lengthAdjust="spacing" textLength="132" x="183" y="154.6294">Submit data request</text><polygon fill="#181818" points="503,199.9609,513,203.9609,503,207.9609" style="stroke:#181818;stroke-width:1.0;"/><line style="stroke:#181818;stroke-width:1.0;" x1="342" x2="509" y1="203.9609" y2="203.9609"/><text fill="#000000" font-family="sans-serif" font-size="13" font-weight="bold" lengthAdjust="spacing" textLength="9" x="349" y="191.3286">3</text><text fill="#000000" font-family="sans-serif" font-size="13" lengthAdjust="spacing" textLength="137" x="362" y="183.7622">Store request/service</text><text fill="#000000" font-family="sans-serif" font-size="13" lengthAdjust="spacing" textLength="73" x="362" y="198.895">information</text><line style="stroke:#181818;stroke-width:1.0;" x1="343" x2="353" y1="233.0938" y2="229.0938"/><line style="stroke:#181818;stroke-width:1.0;" x1="343" x2="353" y1="233.0938" y2="237.0938"/><line style="stroke:#181818;stroke-width:1.0;stroke-dasharray:2.0,2.0;" x1="342" x2="514" y1="233.0938" y2="233.0938"/><text fill="#000000" font-family="sans-serif" font-size="13" font-weight="bold" lengthAdjust="spacing" textLength="9" x="359" y="228.0278">4</text><text fill="#000000" font-family="sans-serif" font-size="13" lengthAdjust="spacing" textLength="18" x="372" y="228.0278">OK</text><line style="stroke:#181818;stroke-width:1.0;" x1="164" x2="174" y1="262.2266" y2="258.2266"/><line style="stroke:#181818;stroke-width:1.0;" x1="164" x2="174" y1="262.2266" y2="266.2266"/><line style="stroke:#181818;stroke-width:1.0;stroke-dasharray:2.0,2.0;" x1="163" x2="331" y1="262.2266" y2="262.2266"/><text fill="#000000" font-family="sans-serif" font-size="13" font-weight="bold" lengthAdjust="spacing" textLength="9" x="180" y="257.1606">5</text><text fill="#000000" font-family="sans-serif" font-size="13" lengthAdjust="spacing" textLength="18" x="193" y="257.1606">OK</text><!--SRC=[VP1BJyD038Jl-ojCE5VSELGghmj2LEg12nSdCPNLVR7hhIY8_uutK98KYKkaZMU-6Jlls4TCw23BmP9-4tTId3LvdD1h8TyHV1Y0DIRXZYDwkS9kjqsX-Fuws9104lgi5lAYmbKd8Vqd-JG6YmHVN4l9dCM4MuSW5DvLLaYdbG3DhUKjjzgjHXyQm0mKJHlUe7d0j2E95hNSvf25N0FdynfnxAkeDJnH2wiO1mp6UAgO4f-z2YrtA1pyO73ZzDHuWu8jPXfq_S_3aEz1cnf34HRB6WYNSCVMGYW2Bo4vK__fQ89MoQQqZcNWGAhdprBFmNiKchMOsfHo3Au8FHuTpHUPqfw7dTZNs66d4VbR-1UmM2nFIptUcvx-McOLgkjxoxbwslaB]--></g></svg>