<?xml version="1.0" encoding="us-ascii" standalone="no"?><svg xmlns="http://www.w3.org/2000/svg" xmlns:xlink="http://www.w3.org/1999/xlink" contentStyleType="text/css" height="389px" preserveAspectRatio="none" style="width:709px;height:389px;background:#FFFFFF;" version="1.1" viewBox="0 0 709 389" width="709px" zoomAndPan="magnify"><defs/><g><rect fill="none" height="377.7734" style="stroke:#181818;stroke-width:0.5;" width="434.5" x="111" y="6"/><text fill="#000000" font-family="sans-serif" font-size="13" font-weight="bold" lengthAdjust="spacing" textLength="128" x="264.25" y="19.4951">Marketplace System</text><rect fill="none" height="377.7734" style="stroke:#181818;stroke-width:0.5;" width="119" x="557.5" y="6"/><text fill="#000000" font-family="sans-serif" font-size="13" font-weight="bold" lengthAdjust="spacing" textLength="85" x="574.5" y="19.4951">AIIDA System</text><line style="stroke:#181818;stroke-width:0.5;stroke-dasharray:5.0,5.0;" x1="49" x2="49" y1="103.9609" y2="377.7734"/><line style="stroke:#181818;stroke-width:0.5;stroke-dasharray:5.0,5.0;" x1="162" x2="162" y1="103.9609" y2="377.7734"/><line style="stroke:#181818;stroke-width:0.5;stroke-dasharray:5.0,5.0;" x1="362" x2="362" y1="103.9609" y2="377.7734"/><rect fill="#FFFFFF" height="195.1094" style="stroke:#181818;stroke-width:1.0;" width="10" x="357" y="164.6641"/><line style="stroke:#181818;stroke-width:0.5;stroke-dasharray:5.0,5.0;" x1="438" x2="438" y1="103.9609" y2="377.7734"/><line style="stroke:#181818;stroke-width:0.5;stroke-dasharray:5.0,5.0;" x1="504" x2="504" y1="103.9609" y2="377.7734"/><rect fill="#FFFFFF" height="30.3516" style="stroke:#181818;stroke-width:1.0;" width="10" x="499" y="195.0156"/><line style="stroke:#181818;stroke-width:0.5;stroke-dasharray:5.0,5.0;" x1="617" x2="617" y1="103.9609" y2="377.7734"/><rect fill="#FFFFFF" height="73.7031" style="stroke:#181818;stroke-width:1.0;" width="10" x="612" y="255.7188"/><text fill="#000000" font-family="sans-serif" font-size="14" lengthAdjust="spacing" textLength="82" x="5" y="100.8848">Eligible Party</text><ellipse cx="49" cy="34.8516" fill="none" rx="8" ry="8" style="stroke:#181818;stroke-width:0.5;"/><path d="M49,42.8516 L49,69.8516 M36,50.8516 L62,50.8516 M49,69.8516 L36,84.8516 M49,69.8516 L62,84.8516 " fill="none" style="stroke:#181818;stroke-width:0.5;"/><rect fill="none" height="31.6094" rx="2.5" ry="2.5" style="stroke:#181818;stroke-width:0.5;" width="94" x="115" y="71.3516"/><text fill="#000000" font-family="sans-serif" font-size="14" lengthAdjust="spacing" textLength="80" x="122" y="92.8848">EP Web App</text><rect fill="none" height="49.2188" rx="2.5" ry="2.5" style="stroke:#181818;stroke-width:0.5;" width="95" x="314.5" y="53.7422"/><text fill="#000000" font-family="sans-serif" font-size="14" lengthAdjust="spacing" textLength="77" x="321.5" y="75.2754">Marketplace</text><text fill="#000000" font-family="sans-serif" font-size="14" lengthAdjust="spacing" textLength="69" x="327.5" y="92.8848">Application</text><rect fill="none" height="31.6094" rx="2.5" ry="2.5" style="stroke:#181818;stroke-width:0.5;" width="37" x="419.5" y="71.3516"/><text fill="#000000" font-family="sans-serif" font-size="14" lengthAdjust="spacing" textLength="23" x="426.5" y="92.8848">IAM</text><rect fill="none" height="31.6094" rx="2.5" ry="2.5" style="stroke:#181818;stroke-width:0.5;" width="75" x="466.5" y="71.3516"/><text fill="#000000" font-family="sans-serif" font-size="14" lengthAdjust="spacing" textLength="61" x="473.5" y="92.8848">Database</text><rect fill="none" height="49.2188" rx="2.5" ry="2.5" style="stroke:#181818;stroke-width:0.5;" width="111" x="561.5" y="53.7422"/><text fill="#000000" font-family="sans-serif" font-size="14" lengthAdjust="spacing" textLength="34" x="598" y="75.2754">AIIDA</text><text fill="#000000" font-family="sans-serif" font-size="14" lengthAdjust="spacing" textLength="97" x="568.5" y="92.8848">Embedded App</text><polygon fill="#181818" points="150,130.3125,160,134.3125,150,138.3125" style="stroke:#181818;stroke-width:1.0;"/><line style="stroke:#181818;stroke-width:1.0;" x1="49" x2="156" y1="134.3125" y2="134.3125"/><text fill="#000000" font-family="sans-serif" font-size="13" font-weight="bold" lengthAdjust="spacing" textLength="7" x="56" y="129.4561">1</text><text fill="#000000" font-family="sans-serif" font-size="13" lengthAdjust="spacing" textLength="78" x="67" y="129.4561">Search AIIDA</text><polygon fill="#181818" points="345,160.6641,355,164.6641,345,168.6641" style="stroke:#181818;stroke-width:1.0;"/><line style="stroke:#181818;stroke-width:1.0;" x1="162" x2="351" y1="164.6641" y2="164.6641"/><text fill="#000000" font-family="sans-serif" font-size="13" font-weight="bold" lengthAdjust="spacing" textLength="7" x="169" y="159.8076">2</text><text fill="#000000" font-family="sans-serif" font-size="13" lengthAdjust="spacing" textLength="66" x="180" y="159.8076">Send query</text><polygon fill="#181818" points="487,191.0156,497,195.0156,487,199.0156" style="stroke:#181818;stroke-width:1.0;"/><line style="stroke:#181818;stroke-width:1.0;" x1="367" x2="493" y1="195.0156" y2="195.0156"/><text fill="#000000" font-family="sans-serif" font-size="13" font-weight="bold" lengthAdjust="spacing" textLength="7" x="374" y="190.1592">3</text><text fill="#000000" font-family="sans-serif" font-size="13" lengthAdjust="spacing" textLength="98" x="385" y="190.1592">Get all AIIDA IPs</text><line style="stroke:#181818;stroke-width:1.0;" x1="368" x2="378" y1="225.3672" y2="221.3672"/><line style="stroke:#181818;stroke-width:1.0;" x1="368" x2="378" y1="225.3672" y2="229.3672"/><line style="stroke:#181818;stroke-width:1.0;stroke-dasharray:2.0,2.0;" x1="367" x2="498" y1="225.3672" y2="225.3672"/><text fill="#000000" font-family="sans-serif" font-size="13" font-weight="bold" lengthAdjust="spacing" textLength="7" x="384" y="220.5107">4</text><text fill="#000000" font-family="sans-serif" font-size="13" lengthAdjust="spacing" textLength="56" x="395" y="220.5107">AIIDA IPs</text><polygon fill="#181818" points="600,251.7188,610,255.7188,600,259.7188" style="stroke:#181818;stroke-width:1.0;"/><line style="stroke:#181818;stroke-width:1.0;" x1="367" x2="606" y1="255.7188" y2="255.7188"/><text fill="#000000" font-family="sans-serif" font-size="13" font-weight="bold" lengthAdjust="spacing" textLength="7" x="374" y="250.8623">5</text><text fill="#000000" font-family="sans-serif" font-size="13" lengthAdjust="spacing" textLength="66" x="385" y="250.8623">Send query</text><line style="stroke:#181818;stroke-width:1.0;" x1="622" x2="664" y1="286.0703" y2="286.0703"/><line style="stroke:#181818;stroke-width:1.0;" x1="664" x2="664" y1="286.0703" y2="299.0703"/><line style="stroke:#181818;stroke-width:1.0;" x1="623" x2="664" y1="299.0703" y2="299.0703"/><polygon fill="#181818" points="633,295.0703,623,299.0703,633,303.0703" style="stroke:#181818;stroke-width:1.0;"/><text fill="#000000" font-family="sans-serif" font-size="13" font-weight="bold" lengthAdjust="spacing" textLength="7" x="629" y="281.2139">6</text><text fill="#000000" font-family="sans-serif" font-size="13" lengthAdjust="spacing" textLength="62" x="640" y="281.2139">Run Query</text><line style="stroke:#181818;stroke-width:1.0;" x1="368" x2="378" y1="329.4219" y2="325.4219"/><line style="stroke:#181818;stroke-width:1.0;" x1="368" x2="378" y1="329.4219" y2="333.4219"/><line style="stroke:#181818;stroke-width:1.0;stroke-dasharray:2.0,2.0;" x1="367" x2="611" y1="329.4219" y2="329.4219"/><text fill="#000000" font-family="sans-serif" font-size="13" font-weight="bold" lengthAdjust="spacing" textLength="7" x="384" y="324.5654">7</text><text fill="#000000" font-family="sans-serif" font-size="13" lengthAdjust="spacing" textLength="44" x="395" y="324.5654">Results</text><line style="stroke:#181818;stroke-width:1.0;" x1="163" x2="173" y1="359.7734" y2="355.7734"/><line style="stroke:#181818;stroke-width:1.0;" x1="163" x2="173" y1="359.7734" y2="363.7734"/><line style="stroke:#181818;stroke-width:1.0;stroke-dasharray:2.0,2.0;" x1="162" x2="356" y1="359.7734" y2="359.7734"/><text fill="#000000" font-family="sans-serif" font-size="13" font-weight="bold" lengthAdjust="spacing" textLength="7" x="179" y="354.917">8</text><text fill="#000000" font-family="sans-serif" font-size="13" lengthAdjust="spacing" textLength="160" x="190" y="354.917">Number of matching AIIDAs</text><!--SRC=[ZLBBJiCm4BpxAvPoxWzmG0gqGZqK5NhWqiicMOfLnpRs1b4G_yx6XkQ1GEGGAPd7pgmT3zfw3DX0vACXUGTTSTiO5Nk4dbko5S6x0jXWO5rfZvQli3hiWsjjVUsC2y01RHG9MHPYKR4BVr4-bCAMdMsRae8wym7t3GAJUnDQIu9s3Z1R6htNfMJhHXzdW178gzAzmcoDuK3i3KguxJ4oDJCu7yVmVLwnsi03bL1udspG-obZwBYpGZIwGjRE9a7JerFXgbWdYiPc2YsGiSH82Q-_FXJP6gI4oasArMfH_Aj3PkxiKjPMrrJtRRIkiRSb3_FBhY9Sm9OmL4-GfAhx9SYWIsA8Jeuv7BkrwnTa6hKTiaNytKAKDyI0ncHpM6rYRt3gUgBFvvVJoRskff_AoTpKyPUukNzc3AZthOMxpCpGpmZt55l3em3PR3Izq-LrtgOh2-vHVBXwqdQVMumSXjjBpoS0]--></g></svg>