<svg xmlns="http://www.w3.org/2000/svg" xmlns:xlink="http://www.w3.org/1999/xlink" contentStyleType="text/css" height="631px" preserveAspectRatio="none" style="width:1059px;height:631px;background:#FFFFFF;" version="1.1" viewBox="0 0 1059 631" width="1059px" zoomAndPan="magnify"><defs/><g><!--cluster AIIDA System--><g id="cluster_AIIDA System"><rect fill="none" height="493.3" rx="2.5" ry="2.5" style="stroke:#181818;stroke-width:1.0;" width="952" x="7" y="7"/><text fill="#000000" font-family="sans-serif" font-size="14" font-weight="bold" lengthAdjust="spacing" textLength="94.9756" x="435.5122" y="23.9659">AIIDA System</text></g><!--cluster aiida--><g id="cluster_aiida"><polygon fill="#FFFFFF" points="345,233.56,355,223.56,767,223.56,767,466.3,757,476.3,345,476.3,345,233.56" style="stroke:#000000;stroke-width:1.0;"/><line style="stroke:#000000;stroke-width:1.0;" x1="757" x2="767" y1="233.56" y2="223.56"/><line style="stroke:#000000;stroke-width:1.0;" x1="345" x2="757" y1="233.56" y2="233.56"/><line style="stroke:#000000;stroke-width:1.0;" x1="757" x2="757" y1="233.56" y2="476.3"/><text fill="#000000" font-family="sans-serif" font-size="14" font-weight="bold" lengthAdjust="spacing" textLength="111.3696" x="496.3152" y="251.5259">In-house Device</text></g><!--cluster epInfra--><g id="cluster_epInfra"><polygon fill="#FFFFFF" points="31,63,41,53,321,53,321,324.17,311,334.17,31,334.17,31,63" style="stroke:#000000;stroke-width:1.0;"/><line style="stroke:#000000;stroke-width:1.0;" x1="311" x2="321" y1="63" y2="53"/><line style="stroke:#000000;stroke-width:1.0;" x1="31" x2="311" y1="63" y2="63"/><line style="stroke:#000000;stroke-width:1.0;" x1="311" x2="311" y1="63" y2="334.17"/><text fill="#000000" font-family="sans-serif" font-size="14" font-weight="bold" lengthAdjust="spacing" textLength="195.3833" x="74.3084" y="80.9659">Eligible Party Infrastructure</text></g><!--entity REST--><g id="elem_REST"><ellipse cx="600" cy="126.56" fill="#F1F1F1" rx="8" ry="8" style="stroke:#181818;stroke-width:0.5;"/><text fill="#000000" font-family="sans-serif" font-size="14" lengthAdjust="spacing" textLength="31.9619" x="584.0191" y="158.5259">REST</text></g><!--entity UI--><g id="elem_UI"><ellipse cx="511" cy="126.56" fill="#F1F1F1" rx="8" ry="8" style="stroke:#181818;stroke-width:0.5;"/><text fill="#000000" font-family="sans-serif" font-size="14" lengthAdjust="spacing" textLength="14.9799" x="503.51" y="158.5259">UI</text></g><!--entity adapterDevice--><g id="elem_adapterDevice"><polygon fill="#FFFFFF" points="823.09,415.2,833.09,405.2,942.9177,405.2,942.9177,444.2679,932.9177,454.2679,823.09,454.2679,823.09,415.2" style="stroke:#000000;stroke-width:0.5;"/><line style="stroke:#000000;stroke-width:0.5;" x1="932.9177" x2="942.9177" y1="415.2" y2="405.2"/><line style="stroke:#000000;stroke-width:0.5;" x1="823.09" x2="932.9177" y1="415.2" y2="415.2"/><line style="stroke:#000000;stroke-width:0.5;" x1="932.9177" x2="932.9177" y1="415.2" y2="454.2679"/><text fill="#000000" font-family="sans-serif" font-size="14" lengthAdjust="spacing" textLength="79.8277" x="838.09" y="440.1659">Data Source</text></g><!--entity aiidaapp--><g id="elem_aiidaapp"><rect fill="none" height="42.0679" rx="2.5" ry="2.5" style="stroke:#000000;stroke-width:0.5;" width="144.9956" x="481.5" y="266.56"/><polygon fill="none" points="609.4956,271.56,609.4956,285.56,621.4956,285.56,621.4956,277.56,615.4956,271.56,609.4956,271.56" style="stroke:#000000;stroke-width:0.5;"/><line style="stroke:#000000;stroke-width:0.5;" x1="615.4956" x2="615.4956" y1="271.56" y2="277.56"/><line style="stroke:#000000;stroke-width:0.5;" x1="621.4956" x2="615.4956" y1="277.56" y2="277.56"/><text fill="#000000" font-family="sans-serif" font-size="14" lengthAdjust="spacing" textLength="114.9956" x="491.5" y="294.5259">AIIDA Application</text></g><!--entity emqx--><g id="elem_emqx"><rect fill="none" height="61.1358" rx="2.5" ry="2.5" style="stroke:#000000;stroke-width:0.5;" width="117.3457" x="633.33" y="399.17"/><polygon fill="none" points="733.6757,404.17,733.6757,418.17,745.6757,418.17,745.6757,410.17,739.6757,404.17,733.6757,404.17" style="stroke:#000000;stroke-width:0.5;"/><line style="stroke:#000000;stroke-width:0.5;" x1="739.6757" x2="739.6757" y1="404.17" y2="410.17"/><line style="stroke:#000000;stroke-width:0.5;" x1="745.6757" x2="739.6757" y1="410.17" y2="410.17"/><text fill="#000000" font-family="sans-serif" font-size="14" lengthAdjust="spacing" textLength="39.6198" x="643.33" y="427.1359">EMQX</text><text fill="#000000" font-family="sans-serif" font-size="14" lengthAdjust="spacing" textLength="87.3457" x="643.33" y="446.2039">MQTT Broker</text></g><!--entity db--><g id="elem_db"><rect fill="none" height="42.0679" rx="2.5" ry="2.5" style="stroke:#000000;stroke-width:0.5;" width="114.4897" x="360.76" y="408.7"/><polygon fill="none" points="458.2497,413.7,458.2497,427.7,470.2497,427.7,470.2497,419.7,464.2497,413.7,458.2497,413.7" style="stroke:#000000;stroke-width:0.5;"/><line style="stroke:#000000;stroke-width:0.5;" x1="464.2497" x2="464.2497" y1="413.7" y2="419.7"/><line style="stroke:#000000;stroke-width:0.5;" x1="470.2497" x2="464.2497" y1="419.7" y2="419.7"/><text fill="#000000" font-family="sans-serif" font-size="14" lengthAdjust="spacing" textLength="84.4897" x="370.76" y="436.6659">TimescaleDB</text></g><!--entity kc--><g id="elem_kc"><rect fill="none" height="42.0679" rx="2.5" ry="2.5" style="stroke:#000000;stroke-width:0.5;" width="87.8338" x="510.08" y="408.7"/><polygon fill="none" points="580.9138,413.7,580.9138,427.7,592.9138,427.7,592.9138,419.7,586.9138,413.7,580.9138,413.7" style="stroke:#000000;stroke-width:0.5;"/><line style="stroke:#000000;stroke-width:0.5;" x1="586.9138" x2="586.9138" y1="413.7" y2="419.7"/><line style="stroke:#000000;stroke-width:0.5;" x1="592.9138" x2="586.9138" y1="419.7" y2="419.7"/><text fill="#000000" font-family="sans-serif" font-size="14" lengthAdjust="spacing" textLength="57.8338" x="520.08" y="436.6659">Keycloak</text></g><!--entity regcon--><g id="elem_regcon"><rect fill="none" height="61.1358" rx="2.5" ry="2.5" style="stroke:#000000;stroke-width:0.5;" width="117.1917" x="70.4" y="96"/><polygon fill="none" points="170.5917,101,170.5917,115,182.5917,115,182.5917,107,176.5917,101,170.5917,101" style="stroke:#000000;stroke-width:0.5;"/><line style="stroke:#000000;stroke-width:0.5;" x1="176.5917" x2="176.5917" y1="101" y2="107"/><line style="stroke:#000000;stroke-width:0.5;" x1="182.5917" x2="176.5917" y1="107" y2="107"/><text fill="#000000" font-family="sans-serif" font-size="14" lengthAdjust="spacing" textLength="87.1917" x="80.4" y="123.9659">AIIDA Region</text><text fill="#000000" font-family="sans-serif" font-size="14" lengthAdjust="spacing" textLength="68.5437" x="80.4" y="143.0339">Connector</text></g><!--entity broker--><g id="elem_broker"><rect fill="none" height="61.1358" rx="2.5" ry="2.5" style="stroke:#000000;stroke-width:0.5;" width="117.3457" x="187.33" y="257.03"/><polygon fill="none" points="287.6757,262.03,287.6757,276.03,299.6757,276.03,299.6757,268.03,293.6757,262.03,287.6757,262.03" style="stroke:#000000;stroke-width:0.5;"/><line style="stroke:#000000;stroke-width:0.5;" x1="293.6757" x2="293.6757" y1="262.03" y2="268.03"/><line style="stroke:#000000;stroke-width:0.5;" x1="299.6757" x2="293.6757" y1="268.03" y2="268.03"/><text fill="#000000" font-family="sans-serif" font-size="14" lengthAdjust="spacing" textLength="39.6198" x="197.33" y="284.9959">EMQX</text><text fill="#000000" font-family="sans-serif" font-size="14" lengthAdjust="spacing" textLength="87.3457" x="197.33" y="304.0639">MQTT Broker</text></g><!--entity emqxiam--><g id="elem_emqxiam"><rect fill="none" height="61.1358" rx="2.5" ry="2.5" style="stroke:#000000;stroke-width:0.5;" width="79.3498" x="47.33" y="257.03"/><polygon fill="none" points="109.6798,262.03,109.6798,276.03,121.6798,276.03,121.6798,268.03,115.6798,262.03,109.6798,262.03" style="stroke:#000000;stroke-width:0.5;"/><line style="stroke:#000000;stroke-width:0.5;" x1="115.6798" x2="115.6798" y1="262.03" y2="268.03"/><line style="stroke:#000000;stroke-width:0.5;" x1="121.6798" x2="115.6798" y1="268.03" y2="268.03"/><text fill="#000000" font-family="sans-serif" font-size="14" lengthAdjust="spacing" textLength="39.6198" x="57.33" y="284.9959">EMQX</text><text fill="#000000" font-family="sans-serif" font-size="14" lengthAdjust="spacing" textLength="49.3498" x="57.33" y="304.0639">IAM DB</text></g><!--entity measuringdevice--><g id="elem_measuringdevice"><polygon fill="#FFFFFF" points="804.22,575.3,814.22,565.3,961.7775,565.3,961.7775,604.3679,951.7775,614.3679,804.22,614.3679,804.22,575.3" style="stroke:#000000;stroke-width:0.5;"/><line style="stroke:#000000;stroke-width:0.5;" x1="951.7775" x2="961.7775" y1="575.3" y2="565.3"/><line style="stroke:#000000;stroke-width:0.5;" x1="804.22" x2="951.7775" y1="575.3" y2="575.3"/><line style="stroke:#000000;stroke-width:0.5;" x1="951.7775" x2="951.7775" y1="575.3" y2="614.3679"/><text fill="#000000" font-family="sans-serif" font-size="14" lengthAdjust="spacing" textLength="117.5575" x="819.22" y="600.2659">Measuring Device</text></g><!--link aiidaapp to emqx--><g id="link_aiidaapp_emqx"><path d="M573.44,308.9 C589.16,325.26 611.89,348.8 632,369.17 C641.59,378.88 652.13,389.4 661.67,398.85 " fill="none" id="aiidaapp-emqx" style="stroke:#181818;stroke-width:1.0;"/><text fill="#000000" font-family="sans-serif" font-size="13" lengthAdjust="spacing" textLength="36.4001" x="633" y="365.067">MQTT</text></g><!--link aiidaapp to db--><g id="link_aiidaapp_db"><path d="M534.22,308.98 C508.44,335.54 463.6,381.75 437.8,408.33 " fill="none" id="aiidaapp-db" style="stroke:#181818;stroke-width:1.0;"/><text fill="#000000" font-family="sans-serif" font-size="13" lengthAdjust="spacing" textLength="24.102" x="495.14" y="365.067">SQL</text></g><!--link aiidaapp to kc--><g id="link_aiidaapp_kc"><path d="M554,308.98 C554,335.54 554,381.75 554,408.33 " fill="none" id="aiidaapp-kc" style="stroke:#181818;stroke-width:1.0;"/><text fill="#000000" font-family="sans-serif" font-size="13" lengthAdjust="spacing" textLength="32.266" x="555" y="365.067">OIDC</text></g><!--link db to emqx--><!--link kc to emqx--><!--link emqxiam to broker--><g id="link_emqxiam_broker"><path d="M127.12,287.6 C145.25,287.6 167.02,287.6 186.96,287.6 " fill="none" id="emqxiam-broker" style="stroke:#181818;stroke-width:1.0;"/><text fill="#000000" font-family="sans-serif" font-size="13" lengthAdjust="spacing" textLength="24.102" x="145" y="280.497">SQL</text></g><!--link regcon to broker--><g id="link_regcon_broker"><path d="M151.01,157.48 C171.86,185.82 203.01,228.16 223.89,256.55 " fill="none" id="regcon-broker" style="stroke:#181818;stroke-width:1.0;"/><text fill="#000000" font-family="sans-serif" font-size="13" lengthAdjust="spacing" textLength="36.4001" x="188.5" y="203.457">MQTT</text></g><!--link regcon to emqxiam--><g id="link_regcon_emqxiam"><path d="M121.1,157.48 C113.61,185.82 102.43,228.16 94.94,256.55 " fill="none" id="regcon-emqxiam" style="stroke:#181818;stroke-width:1.0;"/><text fill="#000000" font-family="sans-serif" font-size="13" lengthAdjust="spacing" textLength="24.102" x="112.76" y="203.457">SQL</text></g><!--link broker to aiidaapp--><g id="link_broker_aiidaapp"><path d="M305.02,287.6 C355.15,287.6 427.31,287.6 481.06,287.6 " fill="none" id="broker-aiidaapp" style="stroke:#181818;stroke-width:1.0;"/><text fill="#000000" font-family="sans-serif" font-size="13" lengthAdjust="spacing" textLength="36.4001" x="375.09" y="280.497">MQTT</text></g><!--link REST to aiidaapp--><g id="link_REST_aiidaapp"><path d="M597.78,135.23 C590.96,158.81 570.15,230.77 559.87,266.31 " fill="none" id="REST-aiidaapp" style="stroke:#181818;stroke-width:1.0;"/><text fill="#000000" font-family="sans-serif" font-size="13" lengthAdjust="spacing" textLength="31.954" x="582.12" y="203.457">HTTP</text></g><!--link UI to aiidaapp--><g id="link_UI_aiidaapp"><path d="M510.52,135.22 C509.81,149.64 509.25,181.71 516,207.56 C521.5,228.63 532.71,250.82 541.54,266.31 " fill="none" id="UI-aiidaapp" style="stroke:#181818;stroke-width:1.0;"/><text fill="#000000" font-family="sans-serif" font-size="13" lengthAdjust="spacing" textLength="31.954" x="517" y="203.457">HTTP</text></g><!--link aiidaapp to adapterDevice--><g id="link_aiidaapp_adapterDevice"><path d="M602.19,309.13 C661.89,334.56 763.44,377.81 826.68,404.74 " fill="none" id="aiidaapp-adapterDevice" style="stroke:#181818;stroke-width:1.0;"/><text fill="#000000" font-family="sans-serif" font-size="13" lengthAdjust="spacing" textLength="49.9071" x="739.2" y="365.067">Modbus</text></g><!--link emqx to adapterDevice--><g id="link_emqx_adapterDevice"><path d="M751.13,429.73 C773.91,429.73 799.95,429.73 822.84,429.73 " fill="none" id="emqx-adapterDevice" style="stroke:#181818;stroke-width:1.0;"/><text fill="#000000" font-family="sans-serif" font-size="13" lengthAdjust="spacing" textLength="36.4001" x="768.88" y="422.627">MQTT</text></g><!--link adapterDevice to measuringdevice--><g id="link_adapterDevice_measuringdevice"><path d="M883,454.75 C883,484.55 883,535.07 883,564.86 " fill="none" id="adapterDevice-measuringdevice" style="stroke:#181818;stroke-width:1.0;"/><text fill="#000000" font-family="sans-serif" font-size="13" lengthAdjust="spacing" textLength="167.4402" x="884" y="531.197">DSMR, Modbus, M-Bus, etc.</text></g><!--SRC=[ZLF1ZjCm4BtxAqQzz48um6rlRTCL4LHiso0XiHmSUvfQIUpWE2mLwhypiPCsAGNjoScyDszcdZrp4AQgZKRjG2gUMrunDeUcKBhcz0EbqkXEDOAnxcWOkoBSEdNWmlrc04jZ9TgLAOs5hEIYw69qvDQqMeQuirmtb4gbs7caeut4rsgy79N3IRP5uRZEIoynduYC2_w_7O17ezsuz9cnYpBC5aaIBs1_QXnMC-WgTKt3BD7HqRGDGem_bS0Py0QuKf9x3bmi6XGMTLqgmPqo-ihbTNr3Nc-sN-5PRxPf2ajh2hIUZTMFNpVCL5NO25vYlFGKcTqGFk99b8ON7Yq42t1V5Y9fNdJaXU41kdftSPaHkjz-kWiMWi3FIRpoA56ZRqSb9UhlLkL75rtR9kO_i3ExMBekLQuoCls9XZX1eW-MDywsmhMM3FO-r3vwt-8TvkJkiruPhUa2JR3EOYwCVftDcV-ypqqM6-YjxbfNtRPqn903KOc7VYg2HgQ5-eDbFNla-1IVvW_-N8qFLMvLhdXRHx1RxrF2FgJfqr_ObsH0_CwGbnKv7zumB5goM_7md7petHtM8srF_-03wJqBznTpns5lMZkiW-IrGnlIQAq2QuEyQQtI-NXpgY4O51cRv0vZNqQXmOtCskO-RVocsOroS66QzW3nVhDxqslI6Isx0vruowZjFm00]--></g></svg>