<svg xmlns="http://www.w3.org/2000/svg" xmlns:xlink="http://www.w3.org/1999/xlink" contentStyleType="text/css" data-diagram-type="SEQUENCE" height="583px" preserveAspectRatio="none" style="width:790px;height:583px;background:#FFFFFF;" version="1.1" viewBox="0 0 790 583" width="790px" zoomAndPan="magnify"><defs/><g><rect fill="none" height="571.3642" style="stroke:#181818;stroke-width:0.5;" width="135.6701" x="102.2877" y="6"/><text fill="#000000" font-family="sans-serif" font-size="13" font-weight="bold" lengthAdjust="spacing" textLength="111.6701" x="114.2877" y="19.897">EP Infrastructure</text><rect fill="none" height="571.3642" style="stroke:#181818;stroke-width:0.5;" width="527.999" x="249.9578" y="6"/><text fill="#000000" font-family="sans-serif" font-size="13" font-weight="bold" lengthAdjust="spacing" textLength="116.3241" x="455.7952" y="19.897">EDDIE Framework</text><g><title>Eligible Party</title><rect fill="#000000" fill-opacity="0.00000" height="464.5902" width="8" x="47.1438" y="106.7739"/><line style="stroke:#181818;stroke-width:0.5;stroke-dasharray:5,5;" x1="50.6438" x2="50.6438" y1="106.7739" y2="571.3642"/></g><g><title>EP HTTP Client</title><rect fill="#000000" fill-opacity="0.00000" height="464.5902" width="8" x="166.6227" y="106.7739"/><line style="stroke:#181818;stroke-width:0.5;stroke-dasharray:5,5;" x1="170.1227" x2="170.1227" y1="106.7739" y2="571.3642"/></g><g><title>EDDIE Core</title><rect fill="#000000" fill-opacity="0.00000" height="464.5902" width="8" x="295.1526" y="106.7739"/><line style="stroke:#181818;stroke-width:0.5;stroke-dasharray:5,5;" x1="298.6526" x2="298.6526" y1="106.7739" y2="571.3642"/></g><g><title/><rect fill="#FFFFFF" height="130.5301" style="stroke:#181818;stroke-width:1;" width="10" x="293.6526" y="282.01"/></g><g><title>Region Connector</title><rect fill="#000000" fill-opacity="0.00000" height="464.5902" width="8" x="454.5257" y="106.7739"/><line style="stroke:#181818;stroke-width:0.5;stroke-dasharray:5,5;" x1="458.0257" x2="458.0257" y1="106.7739" y2="571.3642"/></g><g><title>Outbound Connector</title><rect fill="#000000" fill-opacity="0.00000" height="464.5902" width="8" x="607.5002" y="106.7739"/><line style="stroke:#181818;stroke-width:0.5;stroke-dasharray:5,5;" x1="611.0002" x2="611.0002" y1="106.7739" y2="571.3642"/></g><g><title>Database</title><rect fill="#000000" fill-opacity="0.00000" height="464.5902" width="8" x="732.4328" y="106.7739"/><line style="stroke:#181818;stroke-width:0.5;stroke-dasharray:5,5;" x1="735.9328" x2="735.9328" y1="106.7739" y2="571.3642"/></g><text fill="#000000" font-family="sans-serif" font-size="14" lengthAdjust="spacing" textLength="85.2877" x="5" y="102.672">Eligible Party</text><ellipse cx="50.6438" cy="36.206" fill="none" rx="8" ry="8" style="stroke:#181818;stroke-width:0.5;"/><path d="M50.6438,44.206 L50.6438,71.206 M37.6438,52.206 L63.6438,52.206 M50.6438,71.206 L37.6438,86.206 M50.6438,71.206 L63.6438,86.206" fill="none" style="stroke:#181818;stroke-width:0.5;"/><rect fill="none" height="33.0679" rx="2.5" ry="2.5" style="stroke:#181818;stroke-width:0.5;" width="109.6196" x="115.3129" y="72.706"/><text fill="#000000" font-family="sans-serif" font-size="14" lengthAdjust="spacing" textLength="95.6196" x="122.3129" y="94.672">EP HTTP Client</text><rect fill="none" height="33.0679" rx="2.5" ry="2.5" style="stroke:#181818;stroke-width:0.5;" width="89.3897" x="253.9578" y="72.706"/><text fill="#000000" font-family="sans-serif" font-size="14" lengthAdjust="spacing" textLength="75.3897" x="260.9578" y="94.672">EDDIE Core</text><rect fill="none" height="33.0679" rx="2.5" ry="2.5" style="stroke:#181818;stroke-width:0.5;" width="132.1315" x="391.96" y="72.706"/><text fill="#000000" font-family="sans-serif" font-size="14" lengthAdjust="spacing" textLength="118.1315" x="398.96" y="94.672">Region Connector</text><rect fill="none" height="33.0679" rx="2.5" ry="2.5" style="stroke:#181818;stroke-width:0.5;" width="153.8175" x="534.0915" y="72.706"/><text fill="#000000" font-family="sans-serif" font-size="14" lengthAdjust="spacing" textLength="139.8175" x="541.0915" y="94.672">Outbound Connector</text><rect fill="none" height="33.0679" rx="2.5" ry="2.5" style="stroke:#181818;stroke-width:0.5;" width="76.0478" x="697.909" y="72.706"/><text fill="#000000" font-family="sans-serif" font-size="14" lengthAdjust="spacing" textLength="62.0478" x="704.909" y="94.672">Database</text><rect fill="#EEEEEE" height="3" style="stroke:#EEEEEE;stroke-width:1;" width="778.9567" x="5" y="136.6269"/><line style="stroke:#000000;stroke-width:1;" x1="5" x2="783.9567" y1="136.6269" y2="136.6269"/><line style="stroke:#000000;stroke-width:1;" x1="5" x2="783.9567" y1="139.6269" y2="139.6269"/><rect fill="#EEEEEE" height="25.706" style="stroke:#000000;stroke-width:2;" width="109.9661" x="339.4953" y="124.7739"/><text fill="#000000" font-family="sans-serif" font-size="13" font-weight="bold" lengthAdjust="spacing" textLength="92.5861" x="345.4953" y="142.6709">Data Retrieval</text><line style="stroke:#181818;stroke-width:1;" x1="458.0257" x2="500.0257" y1="237.304" y2="237.304"/><line style="stroke:#181818;stroke-width:1;" x1="500.0257" x2="500.0257" y1="237.304" y2="250.304"/><line style="stroke:#181818;stroke-width:1;" x1="459.0257" x2="500.0257" y1="250.304" y2="250.304"/><polygon fill="#181818" points="469.0257,246.304,459.0257,250.304,469.0257,254.304" style="stroke:#181818;stroke-width:1;"/><text fill="#000000" font-family="sans-serif" font-size="13" font-weight="bold" lengthAdjust="spacing" textLength="7.436" x="465.0257" y="204.936">1</text><text fill="#000000" font-family="sans-serif" font-size="13" lengthAdjust="spacing" textLength="41.054" x="476.4617" y="178.377">Collect</text><text fill="#000000" font-family="sans-serif" font-size="13" lengthAdjust="spacing" textLength="88.5691" x="476.4617" y="196.083">customer data</text><text fill="#000000" font-family="sans-serif" font-size="13" lengthAdjust="spacing" textLength="83.8371" x="476.4617" y="213.789">from regional</text><text fill="#000000" font-family="sans-serif" font-size="13" lengthAdjust="spacing" textLength="71.7211" x="476.4617" y="231.495">data source</text><polygon fill="#181818" points="314.6526,278.01,304.6526,282.01,314.6526,286.01" style="stroke:#181818;stroke-width:1;"/><line style="stroke:#181818;stroke-width:1;" x1="308.6526" x2="457.0257" y1="282.01" y2="282.01"/><text fill="#000000" font-family="sans-serif" font-size="13" font-weight="bold" lengthAdjust="spacing" textLength="7.436" x="320.6526" y="276.201">2</text><text fill="#000000" font-family="sans-serif" font-size="13" lengthAdjust="spacing" textLength="118.9371" x="332.0886" y="276.201">Send collected data</text><polygon fill="#181818" points="599.0002,309.716,609.0002,313.716,599.0002,317.716" style="stroke:#181818;stroke-width:1;"/><line style="stroke:#181818;stroke-width:1;" x1="303.6526" x2="605.0002" y1="313.716" y2="313.716"/><text fill="#000000" font-family="sans-serif" font-size="13" font-weight="bold" lengthAdjust="spacing" textLength="7.436" x="310.6526" y="307.907">3</text><text fill="#000000" font-family="sans-serif" font-size="13" lengthAdjust="spacing" textLength="139.2951" x="322.0886" y="307.907">Forward collected data</text><polygon fill="#181818" points="723.9328,359.1281,733.9328,363.1281,723.9328,367.1281" style="stroke:#181818;stroke-width:1;"/><line style="stroke:#181818;stroke-width:1;" x1="611.0002" x2="729.9328" y1="363.1281" y2="363.1281"/><text fill="#000000" font-family="sans-serif" font-size="13" font-weight="bold" lengthAdjust="spacing" textLength="7.436" x="618.0002" y="348.4661">4</text><text fill="#000000" font-family="sans-serif" font-size="13" lengthAdjust="spacing" textLength="63.05" x="629.4362" y="339.6131">Store data</text><text fill="#000000" font-family="sans-serif" font-size="13" lengthAdjust="spacing" textLength="71.4091" x="629.4362" y="357.3191">temporarily</text><polygon fill="#181818" points="314.6526,408.5401,304.6526,412.5401,314.6526,416.5401" style="stroke:#181818;stroke-width:1;"/><line style="stroke:#181818;stroke-width:1;" x1="308.6526" x2="610.0002" y1="412.5401" y2="412.5401"/><text fill="#000000" font-family="sans-serif" font-size="13" font-weight="bold" lengthAdjust="spacing" textLength="7.436" x="320.6526" y="397.8781">5</text><text fill="#000000" font-family="sans-serif" font-size="13" lengthAdjust="spacing" textLength="121.2641" x="332.0886" y="389.0251">Make data available</text><text fill="#000000" font-family="sans-serif" font-size="13" lengthAdjust="spacing" textLength="111.2671" x="332.0886" y="406.7311">via HTTP endpoint</text><rect fill="#EEEEEE" height="3" style="stroke:#EEEEEE;stroke-width:1;" width="778.9567" x="5" y="442.3931"/><line style="stroke:#000000;stroke-width:1;" x1="5" x2="783.9567" y1="442.3931" y2="442.3931"/><line style="stroke:#000000;stroke-width:1;" x1="5" x2="783.9567" y1="445.3931" y2="445.3931"/><rect fill="#EEEEEE" height="25.706" style="stroke:#000000;stroke-width:2;" width="94.717" x="347.1198" y="430.5401"/><text fill="#000000" font-family="sans-serif" font-size="13" font-weight="bold" lengthAdjust="spacing" textLength="77.337" x="353.1198" y="448.4371">Data Access</text><polygon fill="#181818" points="158.1227,485.9521,168.1227,489.9521,158.1227,493.9521" style="stroke:#181818;stroke-width:1;"/><line style="stroke:#181818;stroke-width:1;" x1="50.6438" x2="164.1227" y1="489.9521" y2="489.9521"/><text fill="#000000" font-family="sans-serif" font-size="13" font-weight="bold" lengthAdjust="spacing" textLength="7.436" x="57.6438" y="484.1431">6</text><text fill="#000000" font-family="sans-serif" font-size="13" lengthAdjust="spacing" textLength="80.3531" x="69.0798" y="484.1431">Request data</text><polygon fill="#181818" points="599.0002,517.6582,609.0002,521.6582,599.0002,525.6582" style="stroke:#181818;stroke-width:1;"/><line style="stroke:#181818;stroke-width:1;" x1="170.1227" x2="605.0002" y1="521.6582" y2="521.6582"/><text fill="#000000" font-family="sans-serif" font-size="13" font-weight="bold" lengthAdjust="spacing" textLength="7.436" x="177.1227" y="515.8492">7</text><text fill="#000000" font-family="sans-serif" font-size="13" lengthAdjust="spacing" textLength="245.5053" x="188.5587" y="515.8492">Send GET requests to the REST endpoint</text><line style="stroke:#181818;stroke-width:1;" x1="51.6438" x2="61.6438" y1="553.3642" y2="549.3642"/><line style="stroke:#181818;stroke-width:1;" x1="51.6438" x2="61.6438" y1="553.3642" y2="557.3642"/><line style="stroke:#181818;stroke-width:1;stroke-dasharray:2,2;" x1="50.6438" x2="610.0002" y1="553.3642" y2="553.3642"/><text fill="#000000" font-family="sans-serif" font-size="13" font-weight="bold" lengthAdjust="spacing" textLength="7.436" x="67.6438" y="547.5552">8</text><text fill="#000000" font-family="sans-serif" font-size="13" lengthAdjust="spacing" textLength="133.4971" x="79.0798" y="547.5552">Return customer data</text><!--SRC=[XPBFRjim3CRlUWekFVS51gH0cwHR3qE3DCTSQ9bBXSYIHr7fic7lFafEvjG3jei1Yny__lWd7LpeaR6392TF-cLd9NVUf352tp85I_3J0AoHnLdNOv07j8SznnpQHVIHGHX3qXGAei9xAv7_9Vbb36Q98NSDiVdGC-ux1A7uGsMPD5eSOBRoRkyQPIkbJpF01DGRqyJl6bl3K_ZAgDXPiPbcSFCUenzvg_ppThk6XNSQhLQl8ltmQoYqeAuNw-NoQGMFEW1wYtpuZt4LBs81A7njwsYgsT3UnQ2Y4AXqLfLifxBdB4qPs5H8IPuNK_4I1HjCGzMs6LkOpw74O4EwK3gYX_dSi8NREoq97zNSUpM7NR0vIUo8eItwdKupTbgji6hMBjJd53DREXlKxjJZfLIpWn6rDR_ip1rHw3o2GLgALdnDUepyXlnNtZckohOfrjesNOY4kZuoilEdAzs5uWiUpaeyelEebx8BHuV3fXMnZquNrj84xS-8xgsbbCfyg2_6uqMe-wRSVf81yYfotLATmwVLLb-gE854a5U2pUfbEn9Sq6_l5Bwltdgn0TujmFm6]--></g></svg>