<?xml version="1.0" encoding="us-ascii" standalone="no"?><svg xmlns="http://www.w3.org/2000/svg" xmlns:xlink="http://www.w3.org/1999/xlink" contentStyleType="text/css" height="437px" preserveAspectRatio="none" style="width:780px;height:437px;background:#FFFFFF;" version="1.1" viewBox="0 0 780 437" width="780px" zoomAndPan="magnify"><defs/><g><rect fill="none" height="425.4766" style="stroke:#181818;stroke-width:0.5;" width="129" x="192.5" y="6"/><text fill="#000000" font-family="sans-serif" font-size="13" font-weight="bold" lengthAdjust="spacing" textLength="105" x="204.5" y="19.4951">EP Infrastructure</text><rect fill="none" height="425.4766" style="stroke:#181818;stroke-width:0.5;" width="374.5" x="393" y="6"/><text fill="#000000" font-family="sans-serif" font-size="13" font-weight="bold" lengthAdjust="spacing" textLength="114" x="523.25" y="19.4951">EDDIE Framework</text><line style="stroke:#181818;stroke-width:0.5;stroke-dasharray:5.0,5.0;" x1="49" x2="49" y1="103.9609" y2="425.4766"/><line style="stroke:#181818;stroke-width:0.5;stroke-dasharray:5.0,5.0;" x1="257" x2="257" y1="103.9609" y2="425.4766"/><line style="stroke:#181818;stroke-width:0.5;stroke-dasharray:5.0,5.0;" x1="442" x2="442" y1="103.9609" y2="425.4766"/><rect fill="#FFFFFF" height="60.7031" style="stroke:#181818;stroke-width:1.0;" width="10" x="437" y="225.3672"/><line style="stroke:#181818;stroke-width:0.5;stroke-dasharray:5.0,5.0;" x1="589" x2="589" y1="103.9609" y2="425.4766"/><line style="stroke:#181818;stroke-width:0.5;stroke-dasharray:5.0,5.0;" x1="726" x2="726" y1="103.9609" y2="425.4766"/><text fill="#000000" font-family="sans-serif" font-size="14" lengthAdjust="spacing" textLength="82" x="5" y="100.8848">Eligible Party</text><ellipse cx="49" cy="34.8516" fill="none" rx="8" ry="8" style="stroke:#181818;stroke-width:0.5;"/><path d="M49,42.8516 L49,69.8516 M36,50.8516 L62,50.8516 M49,69.8516 L36,84.8516 M49,69.8516 L62,84.8516 " fill="none" style="stroke:#181818;stroke-width:0.5;"/><rect fill="none" height="31.6094" rx="2.5" ry="2.5" style="stroke:#181818;stroke-width:0.5;" width="87" x="213.5" y="71.3516"/><text fill="#000000" font-family="sans-serif" font-size="14" lengthAdjust="spacing" textLength="73" x="220.5" y="92.8848">EP Website</text><rect fill="none" height="31.6094" rx="2.5" ry="2.5" style="stroke:#181818;stroke-width:0.5;" width="90" x="397" y="71.3516"/><text fill="#000000" font-family="sans-serif" font-size="14" lengthAdjust="spacing" textLength="76" x="404" y="92.8848">EDDIE Core</text><rect fill="none" height="31.6094" rx="2.5" ry="2.5" style="stroke:#181818;stroke-width:0.5;" width="129" x="524.5" y="71.3516"/><text fill="#000000" font-family="sans-serif" font-size="14" lengthAdjust="spacing" textLength="115" x="531.5" y="92.8848">Region Connector</text><rect fill="none" height="31.6094" rx="2.5" ry="2.5" style="stroke:#181818;stroke-width:0.5;" width="75" x="688.5" y="71.3516"/><text fill="#000000" font-family="sans-serif" font-size="14" lengthAdjust="spacing" textLength="61" x="695.5" y="92.8848">Database</text><rect fill="#EEEEEE" height="3" style="stroke:#EEEEEE;stroke-width:1.0;" width="768.5" x="5" y="133.1367"/><line style="stroke:#000000;stroke-width:1.0;" x1="5" x2="773.5" y1="133.1367" y2="133.1367"/><line style="stroke:#000000;stroke-width:1.0;" x1="5" x2="773.5" y1="136.1367" y2="136.1367"/><rect fill="#EEEEEE" height="24.3516" style="stroke:#000000;stroke-width:2.0;" width="150" x="314.25" y="121.9609"/><text fill="#000000" font-family="sans-serif" font-size="13" font-weight="bold" lengthAdjust="spacing" textLength="132" x="320.25" y="139.4561">Termination Request</text><polygon fill="#181818" points="245,191.0156,255,195.0156,245,199.0156" style="stroke:#181818;stroke-width:1.0;"/><line style="stroke:#181818;stroke-width:1.0;" x1="49" x2="251" y1="195.0156" y2="195.0156"/><text fill="#000000" font-family="sans-serif" font-size="13" font-weight="bold" lengthAdjust="spacing" textLength="7" x="56" y="181.9834">1</text><text fill="#000000" font-family="sans-serif" font-size="13" lengthAdjust="spacing" textLength="173" x="67" y="173.8076">Initiate permission termination</text><text fill="#000000" font-family="sans-serif" font-size="13" lengthAdjust="spacing" textLength="155" x="67" y="190.1592">(via API or Admin Console)</text><polygon fill="#181818" points="425,221.3672,435,225.3672,425,229.3672" style="stroke:#181818;stroke-width:1.0;"/><line style="stroke:#181818;stroke-width:1.0;" x1="257" x2="431" y1="225.3672" y2="225.3672"/><text fill="#000000" font-family="sans-serif" font-size="13" font-weight="bold" lengthAdjust="spacing" textLength="7" x="264" y="220.5107">2</text><text fill="#000000" font-family="sans-serif" font-size="13" lengthAdjust="spacing" textLength="145" x="275" y="220.5107">Send termination request</text><polygon fill="#181818" points="714,251.7188,724,255.7188,714,259.7188" style="stroke:#181818;stroke-width:1.0;"/><line style="stroke:#181818;stroke-width:1.0;" x1="447" x2="720" y1="255.7188" y2="255.7188"/><text fill="#000000" font-family="sans-serif" font-size="13" font-weight="bold" lengthAdjust="spacing" textLength="7" x="454" y="250.8623">3</text><text fill="#000000" font-family="sans-serif" font-size="13" lengthAdjust="spacing" textLength="249" x="465" y="250.8623">Update permission status to TERMINATED</text><polygon fill="#181818" points="577,282.0703,587,286.0703,577,290.0703" style="stroke:#181818;stroke-width:1.0;"/><line style="stroke:#181818;stroke-width:1.0;" x1="447" x2="583" y1="286.0703" y2="286.0703"/><text fill="#000000" font-family="sans-serif" font-size="13" font-weight="bold" lengthAdjust="spacing" textLength="7" x="454" y="281.2139">4</text><text fill="#000000" font-family="sans-serif" font-size="13" lengthAdjust="spacing" textLength="101" x="465" y="281.2139">Notify termination</text><rect fill="#EEEEEE" height="3" style="stroke:#EEEEEE;stroke-width:1.0;" width="768.5" x="5" y="315.2461"/><line style="stroke:#000000;stroke-width:1.0;" x1="5" x2="773.5" y1="315.2461" y2="315.2461"/><line style="stroke:#000000;stroke-width:1.0;" x1="5" x2="773.5" y1="318.2461" y2="318.2461"/><rect fill="#EEEEEE" height="24.3516" style="stroke:#000000;stroke-width:2.0;" width="108" x="335.25" y="304.0703"/><text fill="#000000" font-family="sans-serif" font-size="13" font-weight="bold" lengthAdjust="spacing" textLength="90" x="341.25" y="321.5654">Data Handling</text><line style="stroke:#181818;stroke-width:1.0;" x1="443" x2="453" y1="360.7734" y2="356.7734"/><line style="stroke:#181818;stroke-width:1.0;" x1="443" x2="453" y1="360.7734" y2="364.7734"/><line style="stroke:#181818;stroke-width:1.0;stroke-dasharray:2.0,2.0;" x1="442" x2="588" y1="360.7734" y2="360.7734"/><text fill="#000000" font-family="sans-serif" font-size="13" font-weight="bold" lengthAdjust="spacing" textLength="7" x="459" y="355.917">5</text><text fill="#000000" font-family="sans-serif" font-size="13" lengthAdjust="spacing" textLength="112" x="470" y="355.917">Confirm termination</text><line style="stroke:#181818;stroke-width:1.0;" x1="258" x2="268" y1="407.4766" y2="403.4766"/><line style="stroke:#181818;stroke-width:1.0;" x1="258" x2="268" y1="407.4766" y2="411.4766"/><line style="stroke:#181818;stroke-width:1.0;stroke-dasharray:2.0,2.0;" x1="257" x2="441" y1="407.4766" y2="407.4766"/><text fill="#000000" font-family="sans-serif" font-size="13" font-weight="bold" lengthAdjust="spacing" textLength="7" x="274" y="394.4443">6</text><text fill="#000000" font-family="sans-serif" font-size="13" lengthAdjust="spacing" textLength="145" x="285" y="386.2686">Acknowledge termination</text><text fill="#000000" font-family="sans-serif" font-size="13" lengthAdjust="spacing" textLength="110" x="285" y="402.6201">(success or failure)</text><!--SRC=[XP8nRzim48Lt_eghkpI3_q011r1Z5zMGm71TTEbo8ay2OObKZiUaRj7_tgFjGhQ6TD50llVTkqUbWmyZCWwGvDYJVjbRoKDlqdH3pvc29VXj0BR8ugqVCSWdj8UEOmxk8VQHGHX3KWi5KM5b9V9RaZ_6O9OOyj0GctSZOpSW2CLVAikajuK0YqtlEzzejZBwk01CGACnJVofTrkeGykeiRF6Pbh0-ziOuvJt9FzEJV925qmTXBX5IuQ20qN-uwxNzGO-w_Rq6ldm7-f9_13vGdNEqropeyx7eA8GgAnrKhATozOes60wWrmpfLgjO4yy-81IEBlo94bWjJ8qmlB-UXNug9ruyIW4O_6aL2mosN-43oyUeThMe0LNJizBiXHxkZFNf08ksoZoQubonG0-HoYlv5_AhFFUPxqQNQEkRwERnKY2aXD8XFrczrW_LVlDUZAnLTDJ5DyUhuSPHxCnfP1I5dp1u7eVkbA5kfVB-ocpxjHw7cv8br4dsKrdbJs4-DgJwsZMLShMKagbgnPzht_PdVaB]--></g></svg>