<?xml version="1.0" encoding="us-ascii" standalone="no"?><svg xmlns="http://www.w3.org/2000/svg" xmlns:xlink="http://www.w3.org/1999/xlink" contentStyleType="text/css" height="437px" preserveAspectRatio="none" style="width:826px;height:437px;background:#FFFFFF;" version="1.1" viewBox="0 0 826 437" width="826px" zoomAndPan="magnify"><defs/><g><rect fill="none" height="425.4766" style="stroke:#181818;stroke-width:0.5;" width="129" x="157.5" y="6"/><text fill="#000000" font-family="sans-serif" font-size="13" font-weight="bold" lengthAdjust="spacing" textLength="105" x="169.5" y="19.4951">EP Infrastructure</text><rect fill="none" height="425.4766" style="stroke:#181818;stroke-width:0.5;" width="514.5" x="298.5" y="6"/><text fill="#000000" font-family="sans-serif" font-size="13" font-weight="bold" lengthAdjust="spacing" textLength="114" x="498.75" y="19.4951">EDDIE Framework</text><line style="stroke:#181818;stroke-width:0.5;stroke-dasharray:5.0,5.0;" x1="65" x2="65" y1="103.9609" y2="425.4766"/><line style="stroke:#181818;stroke-width:0.5;stroke-dasharray:5.0,5.0;" x1="222" x2="222" y1="103.9609" y2="425.4766"/><line style="stroke:#181818;stroke-width:0.5;stroke-dasharray:5.0,5.0;" x1="347.5" x2="347.5" y1="103.9609" y2="425.4766"/><rect fill="#FFFFFF" height="77.0547" style="stroke:#181818;stroke-width:1.0;" width="10" x="342.5" y="178.6641"/><line style="stroke:#181818;stroke-width:0.5;stroke-dasharray:5.0,5.0;" x1="502.5" x2="502.5" y1="103.9609" y2="425.4766"/><line style="stroke:#181818;stroke-width:0.5;stroke-dasharray:5.0,5.0;" x1="650.5" x2="650.5" y1="103.9609" y2="425.4766"/><line style="stroke:#181818;stroke-width:0.5;stroke-dasharray:5.0,5.0;" x1="771.5" x2="771.5" y1="103.9609" y2="425.4766"/><text fill="#000000" font-family="sans-serif" font-size="14" lengthAdjust="spacing" textLength="114" x="5" y="100.8848">Eligible Party (EP)</text><ellipse cx="65" cy="34.8516" fill="none" rx="8" ry="8" style="stroke:#181818;stroke-width:0.5;"/><path d="M65,42.8516 L65,69.8516 M52,50.8516 L78,50.8516 M65,69.8516 L52,84.8516 M65,69.8516 L78,84.8516 " fill="none" style="stroke:#181818;stroke-width:0.5;"/><rect fill="none" height="31.6094" rx="2.5" ry="2.5" style="stroke:#181818;stroke-width:0.5;" width="112" x="166" y="71.3516"/><text fill="#000000" font-family="sans-serif" font-size="14" lengthAdjust="spacing" textLength="98" x="173" y="92.8848">EP HTTP Client</text><rect fill="none" height="31.6094" rx="2.5" ry="2.5" style="stroke:#181818;stroke-width:0.5;" width="90" x="302.5" y="71.3516"/><text fill="#000000" font-family="sans-serif" font-size="14" lengthAdjust="spacing" textLength="76" x="309.5" y="92.8848">EDDIE Core</text><rect fill="none" height="31.6094" rx="2.5" ry="2.5" style="stroke:#181818;stroke-width:0.5;" width="129" x="438" y="71.3516"/><text fill="#000000" font-family="sans-serif" font-size="14" lengthAdjust="spacing" textLength="115" x="445" y="92.8848">Region Connector</text><rect fill="none" height="31.6094" rx="2.5" ry="2.5" style="stroke:#181818;stroke-width:0.5;" width="147" x="577" y="71.3516"/><text fill="#000000" font-family="sans-serif" font-size="14" lengthAdjust="spacing" textLength="133" x="584" y="92.8848">Outbound Connector</text><rect fill="none" height="31.6094" rx="2.5" ry="2.5" style="stroke:#181818;stroke-width:0.5;" width="75" x="734" y="71.3516"/><text fill="#000000" font-family="sans-serif" font-size="14" lengthAdjust="spacing" textLength="61" x="741" y="92.8848">Database</text><rect fill="#EEEEEE" height="3" style="stroke:#EEEEEE;stroke-width:1.0;" width="814" x="5" y="133.1367"/><line style="stroke:#000000;stroke-width:1.0;" x1="5" x2="819" y1="133.1367" y2="133.1367"/><line style="stroke:#000000;stroke-width:1.0;" x1="5" x2="819" y1="136.1367" y2="136.1367"/><rect fill="#EEEEEE" height="24.3516" style="stroke:#000000;stroke-width:2.0;" width="108" x="358" y="121.9609"/><text fill="#000000" font-family="sans-serif" font-size="13" font-weight="bold" lengthAdjust="spacing" textLength="90" x="364" y="139.4561">Data Retrieval</text><polygon fill="#181818" points="363.5,174.6641,353.5,178.6641,363.5,182.6641" style="stroke:#181818;stroke-width:1.0;"/><line style="stroke:#181818;stroke-width:1.0;" x1="357.5" x2="501.5" y1="178.6641" y2="178.6641"/><text fill="#000000" font-family="sans-serif" font-size="13" font-weight="bold" lengthAdjust="spacing" textLength="7" x="369.5" y="173.8076">1</text><text fill="#000000" font-family="sans-serif" font-size="13" lengthAdjust="spacing" textLength="115" x="380.5" y="173.8076">Send collected data</text><polygon fill="#181818" points="759.5,205.0156,769.5,209.0156,759.5,213.0156" style="stroke:#181818;stroke-width:1.0;"/><line style="stroke:#181818;stroke-width:1.0;" x1="352.5" x2="765.5" y1="209.0156" y2="209.0156"/><text fill="#000000" font-family="sans-serif" font-size="13" font-weight="bold" lengthAdjust="spacing" textLength="7" x="359.5" y="204.1592">2</text><text fill="#000000" font-family="sans-serif" font-size="13" lengthAdjust="spacing" textLength="128" x="370.5" y="204.1592">Store data temporarily</text><polygon fill="#181818" points="638.5,251.7188,648.5,255.7188,638.5,259.7188" style="stroke:#181818;stroke-width:1.0;"/><line style="stroke:#181818;stroke-width:1.0;" x1="352.5" x2="644.5" y1="255.7188" y2="255.7188"/><text fill="#000000" font-family="sans-serif" font-size="13" font-weight="bold" lengthAdjust="spacing" textLength="7" x="359.5" y="242.6865">3</text><text fill="#000000" font-family="sans-serif" font-size="13" lengthAdjust="spacing" textLength="114" x="370.5" y="234.5107">Make data available</text><text fill="#000000" font-family="sans-serif" font-size="13" lengthAdjust="spacing" textLength="104" x="370.5" y="250.8623">via HTTP endpoint</text><rect fill="#EEEEEE" height="3" style="stroke:#EEEEEE;stroke-width:1.0;" width="814" x="5" y="284.8945"/><line style="stroke:#000000;stroke-width:1.0;" x1="5" x2="819" y1="284.8945" y2="284.8945"/><line style="stroke:#000000;stroke-width:1.0;" x1="5" x2="819" y1="287.8945" y2="287.8945"/><rect fill="#EEEEEE" height="24.3516" style="stroke:#000000;stroke-width:2.0;" width="94" x="365" y="273.7188"/><text fill="#000000" font-family="sans-serif" font-size="13" font-weight="bold" lengthAdjust="spacing" textLength="76" x="371" y="291.2139">Data Access</text><polygon fill="#181818" points="210,342.7734,220,346.7734,210,350.7734" style="stroke:#181818;stroke-width:1.0;"/><line style="stroke:#181818;stroke-width:1.0;" x1="65" x2="216" y1="346.7734" y2="346.7734"/><text fill="#000000" font-family="sans-serif" font-size="13" font-weight="bold" lengthAdjust="spacing" textLength="7" x="72" y="333.7412">4</text><text fill="#000000" font-family="sans-serif" font-size="13" lengthAdjust="spacing" textLength="122" x="83" y="325.5654">Send GET request to</text><text fill="#000000" font-family="sans-serif" font-size="13" lengthAdjust="spacing" textLength="87" x="83" y="341.917">REST endpoint</text><polygon fill="#181818" points="638.5,373.125,648.5,377.125,638.5,381.125" style="stroke:#181818;stroke-width:1.0;"/><line style="stroke:#181818;stroke-width:1.0;" x1="222" x2="644.5" y1="377.125" y2="377.125"/><text fill="#000000" font-family="sans-serif" font-size="13" font-weight="bold" lengthAdjust="spacing" textLength="7" x="229" y="372.2686">5</text><text fill="#000000" font-family="sans-serif" font-size="13" lengthAdjust="spacing" textLength="75" x="240" y="372.2686">Retrieve data</text><line style="stroke:#181818;stroke-width:1.0;" x1="66" x2="76" y1="407.4766" y2="403.4766"/><line style="stroke:#181818;stroke-width:1.0;" x1="66" x2="76" y1="407.4766" y2="411.4766"/><line style="stroke:#181818;stroke-width:1.0;stroke-dasharray:2.0,2.0;" x1="65" x2="649.5" y1="407.4766" y2="407.4766"/><text fill="#000000" font-family="sans-serif" font-size="13" font-weight="bold" lengthAdjust="spacing" textLength="7" x="82" y="402.6201">6</text><text fill="#000000" font-family="sans-serif" font-size="13" lengthAdjust="spacing" textLength="125" x="93" y="402.6201">Return customer data</text><!--SRC=[XPB1Rjim38RlUWeklMo7lC205EWIR-jXQ93cs0ijiPaGMT8aAbqsxDr7MUdS-j1T3DZyH7xwwNoqFcB20JAV7SapMSrbS2fF5VfHo6k2tmfWYucjjX4zVq9zFAHGl5a75n9mGf_b27aMy4PpI6yXVvJ2mi6NeQUatiM4Xm61AVmIh91KQmTOTCuUR2zkTVGPtdVR3ml031ILwiDF0RPmwnyJYdiHzqGBk7hj4YVf4V-wtszXxQnKnrRVcMDxLUGDIDVdrflDRGUV9GLw2kdudyOZl0vLeFePOsdExEXWWnV8UwhN6ycavzXTuRwcDWSfyzrw3c-GiSVSfff-ki9g1RK6EvAjqWaTh5OgQLXUDpdu2FSLri4v6K86ZE0rTtj2fiiD6YfdJ5yFY0kDdAngY25XikuyGKrHm6zul71uGkjGDlZWJnPR-38s1YiP6fgD-sTzepNbN9KfrixJafwzltHxcIS_PsRWyE1ttVr-wlo2V-br2QEvgSldvV9QCecjN987NJA7WLAZ_W80]--></g></svg>