<?xml version="1.0" encoding="us-ascii" standalone="no"?><svg xmlns="http://www.w3.org/2000/svg" xmlns:xlink="http://www.w3.org/1999/xlink" contentStyleType="text/css" height="473px" preserveAspectRatio="none" style="width:742px;height:473px;background:#FFFFFF;" version="1.1" viewBox="0 0 742 473" width="742px" zoomAndPan="magnify"><defs/><g><rect fill="none" height="461.6641" style="stroke:#181818;stroke-width:0.5;" width="183" x="84" y="6"/><text fill="#000000" font-family="sans-serif" font-size="13" font-weight="bold" lengthAdjust="spacing" textLength="159" x="96" y="19.4951">Permission Administrator</text><rect fill="none" height="461.6641" style="stroke:#181818;stroke-width:0.5;" width="457" x="279" y="6"/><text fill="#000000" font-family="sans-serif" font-size="13" font-weight="bold" lengthAdjust="spacing" textLength="114" x="450.5" y="19.4951">EDDIE Framework</text><line style="stroke:#181818;stroke-width:0.5;stroke-dasharray:5.0,5.0;" x1="38.5" x2="38.5" y1="103.9609" y2="461.6641"/><line style="stroke:#181818;stroke-width:0.5;stroke-dasharray:5.0,5.0;" x1="175.5" x2="175.5" y1="103.9609" y2="461.6641"/><rect fill="#FFFFFF" height="46.7031" style="stroke:#181818;stroke-width:1.0;" width="10" x="170.5" y="150.6641"/><line style="stroke:#181818;stroke-width:0.5;stroke-dasharray:5.0,5.0;" x1="347.5" x2="347.5" y1="103.9609" y2="461.6641"/><line style="stroke:#181818;stroke-width:0.5;stroke-dasharray:5.0,5.0;" x1="511.5" x2="511.5" y1="103.9609" y2="461.6641"/><rect fill="#FFFFFF" height="22.3516" style="stroke:#181818;stroke-width:1.0;" width="10" x="506.5" y="390.9609"/><line style="stroke:#181818;stroke-width:0.5;stroke-dasharray:5.0,5.0;" x1="694.5" x2="694.5" y1="103.9609" y2="461.6641"/><text fill="#000000" font-family="sans-serif" font-size="14" lengthAdjust="spacing" textLength="61" x="5" y="100.8848">Customer</text><ellipse cx="38.5" cy="34.8516" fill="none" rx="8" ry="8" style="stroke:#181818;stroke-width:0.5;"/><path d="M38.5,42.8516 L38.5,69.8516 M25.5,50.8516 L51.5,50.8516 M38.5,69.8516 L25.5,84.8516 M38.5,69.8516 L51.5,84.8516 " fill="none" style="stroke:#181818;stroke-width:0.5;"/><rect fill="none" height="31.6094" rx="2.5" ry="2.5" style="stroke:#181818;stroke-width:0.5;" width="73" x="139" y="71.3516"/><text fill="#000000" font-family="sans-serif" font-size="14" lengthAdjust="spacing" textLength="59" x="146" y="92.8848">PA Portal</text><rect fill="none" height="31.6094" rx="2.5" ry="2.5" style="stroke:#181818;stroke-width:0.5;" width="129" x="283" y="71.3516"/><text fill="#000000" font-family="sans-serif" font-size="14" lengthAdjust="spacing" textLength="115" x="290" y="92.8848">Region Connector</text><rect fill="none" height="31.6094" rx="2.5" ry="2.5" style="stroke:#181818;stroke-width:0.5;" width="90" x="466.5" y="71.3516"/><text fill="#000000" font-family="sans-serif" font-size="14" lengthAdjust="spacing" textLength="76" x="473.5" y="92.8848">EDDIE Core</text><rect fill="none" height="31.6094" rx="2.5" ry="2.5" style="stroke:#181818;stroke-width:0.5;" width="75" x="657" y="71.3516"/><text fill="#000000" font-family="sans-serif" font-size="14" lengthAdjust="spacing" textLength="61" x="664" y="92.8848">Database</text><polygon fill="#181818" points="158.5,146.6641,168.5,150.6641,158.5,154.6641" style="stroke:#181818;stroke-width:1.0;"/><line style="stroke:#181818;stroke-width:1.0;" x1="38.5" x2="164.5" y1="150.6641" y2="150.6641"/><text fill="#000000" font-family="sans-serif" font-size="13" font-weight="bold" lengthAdjust="spacing" textLength="7" x="45.5" y="137.6318">1</text><text fill="#000000" font-family="sans-serif" font-size="13" lengthAdjust="spacing" textLength="97" x="56.5" y="129.4561">Login and revoke</text><text fill="#000000" font-family="sans-serif" font-size="13" lengthAdjust="spacing" textLength="63" x="56.5" y="145.8076">permission</text><polygon fill="#181818" points="335.5,193.3672,345.5,197.3672,335.5,201.3672" style="stroke:#181818;stroke-width:1.0;"/><line style="stroke:#181818;stroke-width:1.0;" x1="180.5" x2="341.5" y1="197.3672" y2="197.3672"/><text fill="#000000" font-family="sans-serif" font-size="13" font-weight="bold" lengthAdjust="spacing" textLength="7" x="187.5" y="184.335">2</text><text fill="#000000" font-family="sans-serif" font-size="13" lengthAdjust="spacing" textLength="95" x="198.5" y="176.1592">Notify revocation</text><text fill="#000000" font-family="sans-serif" font-size="13" lengthAdjust="spacing" textLength="53" x="198.5" y="192.5107">(optional)</text><path d="M331.5,209.3672 L392.5,209.3672 L392.5,217.7188 L382.5,227.7188 L331.5,227.7188 L331.5,209.3672 " fill="#EEEEEE" style="stroke:#000000;stroke-width:1.5;"/><rect fill="none" height="167.5938" style="stroke:#000000;stroke-width:1.5;" width="221" x="331.5" y="209.3672"/><text fill="#000000" font-family="sans-serif" font-size="13" font-weight="bold" lengthAdjust="spacing" textLength="16" x="346.5" y="223.8623">alt</text><text fill="#000000" font-family="sans-serif" font-size="11" font-weight="bold" lengthAdjust="spacing" textLength="129" x="407.5" y="222.7861">[RC notifies revocation]</text><line style="stroke:#000000;stroke-width:1.0;stroke-dasharray:2.0,2.0;" x1="331.5" x2="552.5" y1="295.4219" y2="295.4219"/><text fill="#000000" font-family="sans-serif" font-size="11" font-weight="bold" lengthAdjust="spacing" textLength="109" x="336.5" y="308.8408">[RC does not notify]</text><polygon fill="#181818" points="499.5,272.4219,509.5,276.4219,499.5,280.4219" style="stroke:#181818;stroke-width:1.0;"/><line style="stroke:#181818;stroke-width:1.0;" x1="347.5" x2="505.5" y1="276.4219" y2="276.4219"/><text fill="#000000" font-family="sans-serif" font-size="13" font-weight="bold" lengthAdjust="spacing" textLength="7" x="354.5" y="263.3896">3</text><text fill="#000000" font-family="sans-serif" font-size="13" lengthAdjust="spacing" textLength="92" x="365.5" y="255.2139">Send revocation</text><text fill="#000000" font-family="sans-serif" font-size="13" lengthAdjust="spacing" textLength="62" x="365.5" y="271.5654">notification</text><polygon fill="#181818" points="358.5,334.6094,348.5,338.6094,358.5,342.6094" style="stroke:#181818;stroke-width:1.0;"/><line style="stroke:#181818;stroke-width:1.0;" x1="352.5" x2="510.5" y1="338.6094" y2="338.6094"/><text fill="#000000" font-family="sans-serif" font-size="13" font-weight="bold" lengthAdjust="spacing" textLength="7" x="364.5" y="333.7529">4</text><text fill="#000000" font-family="sans-serif" font-size="13" lengthAdjust="spacing" textLength="116" x="375.5" y="333.7529">Check data updates</text><line style="stroke:#181818;stroke-width:1.0;" x1="509.5" x2="499.5" y1="368.9609" y2="364.9609"/><line style="stroke:#181818;stroke-width:1.0;" x1="509.5" x2="499.5" y1="368.9609" y2="372.9609"/><line style="stroke:#181818;stroke-width:1.0;stroke-dasharray:2.0,2.0;" x1="347.5" x2="510.5" y1="368.9609" y2="368.9609"/><text fill="#000000" font-family="sans-serif" font-size="13" font-weight="bold" lengthAdjust="spacing" textLength="7" x="354.5" y="364.1045">5</text><text fill="#000000" font-family="sans-serif" font-size="13" lengthAdjust="spacing" textLength="129" x="365.5" y="364.1045">No more data received</text><polygon fill="#181818" points="682.5,409.3125,692.5,413.3125,682.5,417.3125" style="stroke:#181818;stroke-width:1.0;"/><line style="stroke:#181818;stroke-width:1.0;" x1="516.5" x2="688.5" y1="413.3125" y2="413.3125"/><text fill="#000000" font-family="sans-serif" font-size="13" font-weight="bold" lengthAdjust="spacing" textLength="7" x="523.5" y="408.4561">6</text><text fill="#000000" font-family="sans-serif" font-size="13" lengthAdjust="spacing" textLength="148" x="534.5" y="408.4561">Update permission status</text><line style="stroke:#181818;stroke-width:1.0;" x1="348.5" x2="358.5" y1="443.6641" y2="439.6641"/><line style="stroke:#181818;stroke-width:1.0;" x1="348.5" x2="358.5" y1="443.6641" y2="447.6641"/><line style="stroke:#181818;stroke-width:1.0;stroke-dasharray:2.0,2.0;" x1="347.5" x2="510.5" y1="443.6641" y2="443.6641"/><text fill="#000000" font-family="sans-serif" font-size="13" font-weight="bold" lengthAdjust="spacing" textLength="7" x="364.5" y="438.8076">7</text><text fill="#000000" font-family="sans-serif" font-size="13" lengthAdjust="spacing" textLength="104" x="375.5" y="438.8076">Stop data retrieval</text><!--SRC=[VPD1Rzim38Nl-XLSTjaE_GCx5CYS3XWm546BtNgX9IuLR8igHQVBXlttqLOSTntGYsr1xtryV81B5rD6mG6AddgofqIluz2xijxGqqZ94_ns07iKZJvcJFePVNSG7bDek6S15Kp5B9JKX5klB6z9_ZY7et8QXvR4lSk2Xm51YN-PR2IxdGYmQSQYF91i00luyy6r_1CsUv8XbX8vmJOCCKMBZsRQmFj_m-GrjRcsi6THx6TYndfmb08OrLNqpMxtzGQ-sFxqpDAzJRoZmvIXuPJ8p_CDBFwrh38R5fe554AarveTAhPOgYAqQwfbSxYwlcI6J_2D3p41caheo1qzf7mfPMem7b5fNVBYD8fuyz-onX-dsUnHpVIGFd2UFh3_w0BzZt3OAzmra2PdfFB2QyiOrD3pQaQ_ftEmXLrDPpNrXIPIOAFOJKMUZ5BzIyRcaNm7mPg1CTkBoddGrVKwwfPXi6QhJCXJF5AOwdDh3RNn2poqvli-4s5jpVu1rB6ytBtw5kCqTSvrhvoNUVRVqD7Q-Gi0]--></g></svg>