<svg xmlns="http://www.w3.org/2000/svg" xmlns:xlink="http://www.w3.org/1999/xlink" contentStyleType="text/css" height="1652px" preserveAspectRatio="none" style="width:1209px;height:1652px;background:#FFFFFF;" version="1.1" viewBox="0 0 1209 1652" width="1209px" zoomAndPan="magnify"><title>AIIDA E2E flow</title><defs/><g><text fill="#000000" font-family="sans-serif" font-size="14" font-weight="bold" lengthAdjust="spacing" textLength="115.7666" x="553.9182" y="27.9951">AIIDA E2E flow</text><rect fill="none" height="482.2578" style="stroke:#000000;stroke-width:1.5;" width="1085.7275" x="3" y="1072.1875"/><rect fill="none" height="379.8594" style="stroke:#000000;stroke-width:1.5;" width="1075.7275" x="3" y="1167.5859"/><rect fill="none" height="277.4609" style="stroke:#000000;stroke-width:1.5;" width="1065.7275" x="3" y="1262.9844"/><line style="stroke:#181818;stroke-width:0.5;stroke-dasharray:5.0,5.0;" x1="49" x2="49" y1="118.5938" y2="1571.4453"/><line style="stroke:#181818;stroke-width:0.5;stroke-dasharray:5.0,5.0;" x1="283.3721" x2="283.3721" y1="118.5938" y2="1571.4453"/><line style="stroke:#181818;stroke-width:0.5;stroke-dasharray:5.0,5.0;" x1="664.4502" x2="664.4502" y1="118.5938" y2="1571.4453"/><line style="stroke:#181818;stroke-width:0.5;stroke-dasharray:5.0,5.0;" x1="907.4185" x2="907.4185" y1="118.5938" y2="1571.4453"/><text fill="#000000" font-family="sans-serif" font-size="14" lengthAdjust="spacing" textLength="68.0039" x="12" y="115.292">Customer</text><ellipse cx="49.002" cy="50.7969" fill="#E2E2F0" rx="8" ry="8" style="stroke:#181818;stroke-width:0.5;"/><path d="M49.002,58.7969 L49.002,85.7969 M36.002,66.7969 L62.002,66.7969 M49.002,85.7969 L36.002,100.7969 M49.002,85.7969 L62.002,100.7969 " fill="none" style="stroke:#181818;stroke-width:0.5;"/><text fill="#000000" font-family="sans-serif" font-size="14" lengthAdjust="spacing" textLength="68.0039" x="12" y="1583.4404">Customer</text><ellipse cx="49.002" cy="1595.2422" fill="#E2E2F0" rx="8" ry="8" style="stroke:#181818;stroke-width:0.5;"/><path d="M49.002,1603.2422 L49.002,1630.2422 M36.002,1611.2422 L62.002,1611.2422 M49.002,1630.2422 L36.002,1645.2422 M49.002,1630.2422 L62.002,1645.2422 " fill="none" style="stroke:#181818;stroke-width:0.5;"/><rect fill="#E2E2F0" height="30.2969" rx="2.5" ry="2.5" style="stroke:#181818;stroke-width:0.5;" width="94.541" x="236.3721" y="87.2969"/><text fill="#000000" font-family="sans-serif" font-size="14" lengthAdjust="spacing" textLength="80.541" x="243.3721" y="107.292">EDDIE Core</text><rect fill="#E2E2F0" height="30.2969" rx="2.5" ry="2.5" style="stroke:#181818;stroke-width:0.5;" width="94.541" x="236.3721" y="1570.4453"/><text fill="#000000" font-family="sans-serif" font-size="14" lengthAdjust="spacing" textLength="80.541" x="243.3721" y="1590.4404">EDDIE Core</text><rect fill="#E2E2F0" height="30.2969" rx="2.5" ry="2.5" style="stroke:#181818;stroke-width:0.5;" width="105.0547" x="612.4502" y="87.2969"/><text fill="#000000" font-family="sans-serif" font-size="14" lengthAdjust="spacing" textLength="91.0547" x="619.4502" y="107.292">MQTT Broker</text><rect fill="#E2E2F0" height="30.2969" rx="2.5" ry="2.5" style="stroke:#181818;stroke-width:0.5;" width="105.0547" x="612.4502" y="1570.4453"/><text fill="#000000" font-family="sans-serif" font-size="14" lengthAdjust="spacing" textLength="91.0547" x="619.4502" y="1590.4404">MQTT Broker</text><rect fill="#E2E2F0" height="30.2969" rx="2.5" ry="2.5" style="stroke:#181818;stroke-width:0.5;" width="52.1924" x="881.4185" y="87.2969"/><text fill="#000000" font-family="sans-serif" font-size="14" lengthAdjust="spacing" textLength="38.1924" x="888.4185" y="107.292">AIIDA</text><rect fill="#E2E2F0" height="30.2969" rx="2.5" ry="2.5" style="stroke:#181818;stroke-width:0.5;" width="52.1924" x="881.4185" y="1570.4453"/><text fill="#000000" font-family="sans-serif" font-size="14" lengthAdjust="spacing" textLength="38.1924" x="888.4185" y="1590.4404">AIIDA</text><polygon fill="#181818" points="271.6426,160.8594,281.6426,164.8594,271.6426,168.8594,275.6426,164.8594" style="stroke:#181818;stroke-width:1.0;"/><line style="stroke:#181818;stroke-width:1.0;" x1="49.002" x2="277.6426" y1="164.8594" y2="164.8594"/><text fill="#000000" font-family="sans-serif" font-size="13" lengthAdjust="spacing" textLength="210.6406" x="56.002" y="144.6606">Click on "EDDIE connect button"</text><text fill="#000000" font-family="sans-serif" font-size="13" lengthAdjust="spacing" textLength="199.3291" x="56.002" y="159.7935">and create permission request</text><line style="stroke:#181818;stroke-width:1.0;" x1="283.6426" x2="325.6426" y1="193.9922" y2="193.9922"/><line style="stroke:#181818;stroke-width:1.0;" x1="325.6426" x2="325.6426" y1="193.9922" y2="206.9922"/><line style="stroke:#181818;stroke-width:1.0;" x1="284.6426" x2="325.6426" y1="206.9922" y2="206.9922"/><polygon fill="#181818" points="294.6426,202.9922,284.6426,206.9922,294.6426,210.9922,290.6426,206.9922" style="stroke:#181818;stroke-width:1.0;"/><text fill="#000000" font-family="sans-serif" font-size="13" lengthAdjust="spacing" textLength="248.4155" x="290.6426" y="188.9263">Produce CREATED, VALIDATED events</text><path d="M152,219.9922 L152,244.9922 L414,244.9922 L414,229.9922 L404,219.9922 L152,219.9922 " fill="#FEFFDD" style="stroke:#181818;stroke-width:0.5;"/><path d="M404,219.9922 L404,229.9922 L414,229.9922 L404,219.9922 " fill="#FEFFDD" style="stroke:#181818;stroke-width:0.5;"/><text fill="#000000" font-family="sans-serif" font-size="13" lengthAdjust="spacing" textLength="241.249" x="158" y="237.0591">Events are published to Kafka broker</text><polygon fill="#181818" points="60.002,267.2578,50.002,271.2578,60.002,275.2578,56.002,271.2578" style="stroke:#181818;stroke-width:1.0;"/><line style="stroke:#181818;stroke-width:1.0;" x1="54.002" x2="282.6426" y1="271.2578" y2="271.2578"/><text fill="#000000" font-family="sans-serif" font-size="13" lengthAdjust="spacing" textLength="93.958" x="66.002" y="266.1919">Show QR code</text><line style="stroke:#181818;stroke-width:1.0;" x1="283.6426" x2="325.6426" y1="300.3906" y2="300.3906"/><line style="stroke:#181818;stroke-width:1.0;" x1="325.6426" x2="325.6426" y1="300.3906" y2="313.3906"/><line style="stroke:#181818;stroke-width:1.0;" x1="284.6426" x2="325.6426" y1="313.3906" y2="313.3906"/><polygon fill="#181818" points="294.6426,309.3906,284.6426,313.3906,294.6426,317.3906,290.6426,313.3906" style="stroke:#181818;stroke-width:1.0;"/><text fill="#000000" font-family="sans-serif" font-size="13" lengthAdjust="spacing" textLength="180.1021" x="290.6426" y="295.3247">Produce SENT_TO_PA event</text><polygon fill="#181818" points="895.5146,338.5234,905.5146,342.5234,895.5146,346.5234,899.5146,342.5234" style="stroke:#181818;stroke-width:1.0;"/><line style="stroke:#181818;stroke-width:1.0;" x1="49.002" x2="901.5146" y1="342.5234" y2="342.5234"/><text fill="#000000" font-family="sans-serif" font-size="13" lengthAdjust="spacing" textLength="297.9209" x="56.002" y="337.4575">Scan/Enter QR code to set up new permission</text><line style="stroke:#181818;stroke-width:1.0;" x1="907.5146" x2="949.5146" y1="386.7891" y2="386.7891"/><line style="stroke:#181818;stroke-width:1.0;" x1="949.5146" x2="949.5146" y1="386.7891" y2="399.7891"/><line style="stroke:#181818;stroke-width:1.0;" x1="908.5146" x2="949.5146" y1="399.7891" y2="399.7891"/><polygon fill="#181818" points="918.5146,395.7891,908.5146,399.7891,918.5146,403.7891,914.5146,399.7891" style="stroke:#181818;stroke-width:1.0;"/><text fill="#000000" font-family="sans-serif" font-size="13" lengthAdjust="spacing" textLength="224.4404" x="914.5146" y="366.5903">Check if already a permission with</text><text fill="#000000" font-family="sans-serif" font-size="13" lengthAdjust="spacing" textLength="240.7222" x="914.5146" y="381.7231">&lt;permissionId&gt; from QR code exists</text><polygon fill="#181818" points="60.002,449.0547,50.002,453.0547,60.002,457.0547,56.002,453.0547" style="stroke:#181818;stroke-width:1.0;"/><line style="stroke:#181818;stroke-width:1.0;" x1="54.002" x2="906.5146" y1="453.0547" y2="453.0547"/><text fill="#000000" font-family="sans-serif" font-size="13" lengthAdjust="spacing" textLength="69.7163" x="66.002" y="447.9888">show error</text><polygon fill="#181818" points="294.6426,492.9922,284.6426,496.9922,294.6426,500.9922,290.6426,496.9922" style="stroke:#181818;stroke-width:1.0;"/><line style="stroke:#181818;stroke-width:1.0;" x1="288.6426" x2="906.5146" y1="496.9922" y2="496.9922"/><text fill="#000000" font-family="sans-serif" font-size="13" lengthAdjust="spacing" textLength="320.6582" x="300.6426" y="491.9263">Make handshake HTTP request with permissionId</text><line style="stroke:#181818;stroke-width:1.0;" x1="283.6426" x2="325.6426" y1="526.125" y2="526.125"/><line style="stroke:#181818;stroke-width:1.0;" x1="325.6426" x2="325.6426" y1="526.125" y2="539.125"/><line style="stroke:#181818;stroke-width:1.0;" x1="284.6426" x2="325.6426" y1="539.125" y2="539.125"/><polygon fill="#181818" points="294.6426,535.125,284.6426,539.125,294.6426,543.125,290.6426,539.125" style="stroke:#181818;stroke-width:1.0;"/><text fill="#000000" font-family="sans-serif" font-size="13" lengthAdjust="spacing" textLength="252.1162" x="290.6426" y="521.0591">Produce HANDSHAKE_RECEIVED event</text><polygon fill="#181818" points="895.5146,564.2578,905.5146,568.2578,895.5146,572.2578,899.5146,568.2578" style="stroke:#181818;stroke-width:1.0;"/><line style="stroke:#181818;stroke-width:1.0;" x1="283.6426" x2="901.5146" y1="568.2578" y2="568.2578"/><text fill="#000000" font-family="sans-serif" font-size="13" lengthAdjust="spacing" textLength="262.2852" x="290.6426" y="563.1919">Return data need details, start/end date</text><line style="stroke:#181818;stroke-width:1.0;" x1="907.5146" x2="949.5146" y1="612.5234" y2="612.5234"/><line style="stroke:#181818;stroke-width:1.0;" x1="949.5146" x2="949.5146" y1="612.5234" y2="625.5234"/><line style="stroke:#181818;stroke-width:1.0;" x1="908.5146" x2="949.5146" y1="625.5234" y2="625.5234"/><polygon fill="#181818" points="918.5146,621.5234,908.5146,625.5234,918.5146,629.5234,914.5146,625.5234" style="stroke:#181818;stroke-width:1.0;"/><text fill="#000000" font-family="sans-serif" font-size="13" lengthAdjust="spacing" textLength="208.9839" x="914.5146" y="592.3247">Check if permission request can</text><text fill="#000000" font-family="sans-serif" font-size="13" lengthAdjust="spacing" textLength="288.0884" x="914.5146" y="607.4575">be fulfilled (e.g. requested data is available)</text><polygon fill="#181818" points="60.002,674.7891,50.002,678.7891,60.002,682.7891,56.002,678.7891" style="stroke:#181818;stroke-width:1.0;"/><line style="stroke:#181818;stroke-width:1.0;" x1="54.002" x2="906.5146" y1="678.7891" y2="678.7891"/><text fill="#000000" font-family="sans-serif" font-size="13" lengthAdjust="spacing" textLength="182.3809" x="66.002" y="673.7231">Show cannot fulfill message</text><polygon fill="#181818" points="294.6426,703.9219,284.6426,707.9219,294.6426,711.9219,290.6426,707.9219" style="stroke:#181818;stroke-width:1.0;"/><line style="stroke:#181818;stroke-width:1.0;" x1="288.6426" x2="906.5146" y1="707.9219" y2="707.9219"/><text fill="#000000" font-family="sans-serif" font-size="13" lengthAdjust="spacing" textLength="348.3975" x="300.6426" y="702.856">Send UNABLE_TO_FULFILL status message (via HTTP)</text><polygon fill="#181818" points="60.002,747.8594,50.002,751.8594,60.002,755.8594,56.002,751.8594" style="stroke:#181818;stroke-width:1.0;"/><line style="stroke:#181818;stroke-width:1.0;" x1="54.002" x2="906.5146" y1="751.8594" y2="751.8594"/><text fill="#000000" font-family="sans-serif" font-size="13" lengthAdjust="spacing" textLength="258.3306" x="66.002" y="746.7935">Prompt for confirmation of data sharing</text><polygon fill="#181818" points="895.5146,776.9922,905.5146,780.9922,895.5146,784.9922,899.5146,780.9922" style="stroke:#181818;stroke-width:1.0;"/><line style="stroke:#181818;stroke-width:1.0;" x1="49.002" x2="901.5146" y1="780.9922" y2="780.9922"/><text fill="#000000" font-family="sans-serif" font-size="13" lengthAdjust="spacing" textLength="167.9209" x="56.002" y="775.9263">Confirm/Grant permission</text><polygon fill="#181818" points="294.6426,806.125,284.6426,810.125,294.6426,814.125,290.6426,810.125" style="stroke:#181818;stroke-width:1.0;"/><line style="stroke:#181818;stroke-width:1.0;" x1="288.6426" x2="906.5146" y1="810.125" y2="810.125"/><text fill="#000000" font-family="sans-serif" font-size="13" lengthAdjust="spacing" textLength="376.6064" x="300.6426" y="805.0591">Second handshake (via HTTP) to request MQTT user &amp; pw</text><line style="stroke:#181818;stroke-width:1.0;" x1="283.6426" x2="325.6426" y1="839.2578" y2="839.2578"/><line style="stroke:#181818;stroke-width:1.0;" x1="325.6426" x2="325.6426" y1="839.2578" y2="852.2578"/><line style="stroke:#181818;stroke-width:1.0;" x1="284.6426" x2="325.6426" y1="852.2578" y2="852.2578"/><polygon fill="#181818" points="294.6426,848.2578,284.6426,852.2578,294.6426,856.2578,290.6426,852.2578" style="stroke:#181818;stroke-width:1.0;"/><text fill="#000000" font-family="sans-serif" font-size="13" lengthAdjust="spacing" textLength="167.3306" x="290.6426" y="834.1919">Produce ACCEPTED event</text><polygon fill="#181818" points="652.9775,877.3906,662.9775,881.3906,652.9775,885.3906,656.9775,881.3906" style="stroke:#181818;stroke-width:1.0;"/><line style="stroke:#181818;stroke-width:1.0;" x1="283.6426" x2="658.9775" y1="881.3906" y2="881.3906"/><text fill="#000000" font-family="sans-serif" font-size="13" lengthAdjust="spacing" textLength="357.335" x="290.6426" y="876.3247">Create dedicated MQTT user &amp; ACLs for AIIDA instance</text><polygon fill="#181818" points="895.5146,906.5234,905.5146,910.5234,895.5146,914.5234,899.5146,910.5234" style="stroke:#181818;stroke-width:1.0;"/><line style="stroke:#181818;stroke-width:1.0;" x1="283.6426" x2="901.5146" y1="910.5234" y2="910.5234"/><text fill="#000000" font-family="sans-serif" font-size="13" lengthAdjust="spacing" textLength="155.1875" x="290.6426" y="905.4575">Return MQTT user &amp; pw</text><path d="M19,923.5234 L19,948.5234 L935,948.5234 L935,933.5234 L925,923.5234 L19,923.5234 " fill="#FEFFDD" style="stroke:#181818;stroke-width:0.5;"/><path d="M925,923.5234 L925,933.5234 L935,933.5234 L925,923.5234 " fill="#FEFFDD" style="stroke:#181818;stroke-width:0.5;"/><text fill="#000000" font-family="sans-serif" font-size="13" lengthAdjust="spacing" textLength="710.1504" x="117.7302" y="940.5903">If start date is far in the future, the MQTT credentials could be activated e.g. just a day before the start date.</text><polygon fill="#181818" points="675.9775,994.9219,665.9775,998.9219,675.9775,1002.9219,671.9775,998.9219" style="stroke:#181818;stroke-width:1.0;"/><line style="stroke:#181818;stroke-width:1.0;" x1="669.9775" x2="906.5146" y1="998.9219" y2="998.9219"/><text fill="#000000" font-family="sans-serif" font-size="13" lengthAdjust="spacing" textLength="110.481" x="681.9775" y="993.856">Open connection</text><polygon fill="#181818" points="675.9775,1024.0547,665.9775,1028.0547,675.9775,1032.0547,671.9775,1028.0547" style="stroke:#181818;stroke-width:1.0;"/><line style="stroke:#181818;stroke-width:1.0;" x1="669.9775" x2="906.5146" y1="1028.0547" y2="1028.0547"/><text fill="#000000" font-family="sans-serif" font-size="13" lengthAdjust="spacing" textLength="197.2026" x="681.9775" y="1022.9888">Subscribe to termination topic</text><polygon fill="#181818" points="675.9775,1053.1875,665.9775,1057.1875,675.9775,1061.1875,671.9775,1057.1875" style="stroke:#181818;stroke-width:1.0;"/><line style="stroke:#181818;stroke-width:1.0;" x1="669.9775" x2="906.5146" y1="1057.1875" y2="1057.1875"/><text fill="#000000" font-family="sans-serif" font-size="13" lengthAdjust="spacing" textLength="135.4844" x="681.9775" y="1052.1216">Send data messages</text><path d="M3,1072.1875 L72.4512,1072.1875 L72.4512,1079.3203 L62.4512,1089.3203 L3,1089.3203 L3,1072.1875 " fill="#EEEEEE" style="stroke:#000000;stroke-width:1.5;"/><rect fill="none" height="482.2578" style="stroke:#000000;stroke-width:1.5;" width="1085.7275" x="3" y="1072.1875"/><text fill="#000000" font-family="sans-serif" font-size="13" font-weight="bold" lengthAdjust="spacing" textLength="24.4512" x="18" y="1085.2544">opt</text><text fill="#000000" font-family="sans-serif" font-size="11" font-weight="bold" lengthAdjust="spacing" textLength="172.1221" x="87.4512" y="1084.3979">[When end date is reached]</text><polygon fill="#181818" points="675.9775,1106.4531,665.9775,1110.4531,675.9775,1114.4531,671.9775,1110.4531" style="stroke:#181818;stroke-width:1.0;"/><line style="stroke:#181818;stroke-width:1.0;" x1="669.9775" x2="906.5146" y1="1110.4531" y2="1110.4531"/><text fill="#000000" font-family="sans-serif" font-size="13" lengthAdjust="spacing" textLength="218.5371" x="681.9775" y="1105.3872">Send FULFILLED status messages</text><line style="stroke:#181818;stroke-width:1.0;" x1="907.5146" x2="949.5146" y1="1139.5859" y2="1139.5859"/><line style="stroke:#181818;stroke-width:1.0;" x1="949.5146" x2="949.5146" y1="1139.5859" y2="1152.5859"/><line style="stroke:#181818;stroke-width:1.0;" x1="908.5146" x2="949.5146" y1="1152.5859" y2="1152.5859"/><polygon fill="#181818" points="918.5146,1148.5859,908.5146,1152.5859,918.5146,1156.5859,914.5146,1152.5859" style="stroke:#181818;stroke-width:1.0;"/><text fill="#000000" font-family="sans-serif" font-size="13" lengthAdjust="spacing" textLength="110.0938" x="914.5146" y="1134.52">Fulfill permission</text><path d="M3,1167.5859 L72.4512,1167.5859 L72.4512,1174.7188 L62.4512,1184.7188 L3,1184.7188 L3,1167.5859 " fill="#EEEEEE" style="stroke:#000000;stroke-width:1.5;"/><rect fill="none" height="379.8594" style="stroke:#000000;stroke-width:1.5;" width="1075.7275" x="3" y="1167.5859"/><text fill="#000000" font-family="sans-serif" font-size="13" font-weight="bold" lengthAdjust="spacing" textLength="24.4512" x="18" y="1180.6528">opt</text><text fill="#000000" font-family="sans-serif" font-size="11" font-weight="bold" lengthAdjust="spacing" textLength="232.042" x="87.4512" y="1179.7964">[When customer revokes permission]</text><polygon fill="#181818" points="675.9775,1201.8516,665.9775,1205.8516,675.9775,1209.8516,671.9775,1205.8516" style="stroke:#181818;stroke-width:1.0;"/><line style="stroke:#181818;stroke-width:1.0;" x1="669.9775" x2="906.5146" y1="1205.8516" y2="1205.8516"/><text fill="#000000" font-family="sans-serif" font-size="13" lengthAdjust="spacing" textLength="213.4019" x="681.9775" y="1200.7856">Send REVOKED status messages</text><line style="stroke:#181818;stroke-width:1.0;" x1="907.5146" x2="949.5146" y1="1234.9844" y2="1234.9844"/><line style="stroke:#181818;stroke-width:1.0;" x1="949.5146" x2="949.5146" y1="1234.9844" y2="1247.9844"/><line style="stroke:#181818;stroke-width:1.0;" x1="908.5146" x2="949.5146" y1="1247.9844" y2="1247.9844"/><polygon fill="#181818" points="918.5146,1243.9844,908.5146,1247.9844,918.5146,1251.9844,914.5146,1247.9844" style="stroke:#181818;stroke-width:1.0;"/><text fill="#000000" font-family="sans-serif" font-size="13" lengthAdjust="spacing" textLength="123.5571" x="914.5146" y="1229.9185">Revoke permission</text><path d="M3,1262.9844 L72.4512,1262.9844 L72.4512,1270.1172 L62.4512,1280.1172 L3,1280.1172 L3,1262.9844 " fill="#EEEEEE" style="stroke:#000000;stroke-width:1.5;"/><rect fill="none" height="277.4609" style="stroke:#000000;stroke-width:1.5;" width="1065.7275" x="3" y="1262.9844"/><text fill="#000000" font-family="sans-serif" font-size="13" font-weight="bold" lengthAdjust="spacing" textLength="24.4512" x="18" y="1276.0513">opt</text><polygon fill="#181818" points="271.6426,1297.25,281.6426,1301.25,271.6426,1305.25,275.6426,1301.25" style="stroke:#181818;stroke-width:1.0;"/><line style="stroke:#181818;stroke-width:1.0;" x1="0" x2="277.6426" y1="1301.25" y2="1301.25"/><text fill="#000000" font-family="sans-serif" font-size="13" lengthAdjust="spacing" textLength="248.3774" x="7" y="1296.1841">Received termination request from EP</text><polygon fill="#181818" points="652.9775,1341.5156,662.9775,1345.5156,652.9775,1349.5156,656.9775,1345.5156" style="stroke:#181818;stroke-width:1.0;"/><line style="stroke:#181818;stroke-width:1.0;" x1="283.6426" x2="658.9775" y1="1345.5156" y2="1345.5156"/><text fill="#000000" font-family="sans-serif" font-size="13" lengthAdjust="spacing" textLength="166.5308" x="290.6426" y="1325.3169">Send termination request</text><text fill="#000000" font-family="sans-serif" font-size="13" lengthAdjust="spacing" textLength="312.3682" x="290.6426" y="1340.4497">(= permissionId on dedicated terminationTopic)</text><polygon fill="#181818" points="895.5146,1370.6484,905.5146,1374.6484,895.5146,1378.6484,899.5146,1374.6484" style="stroke:#181818;stroke-width:1.0;"/><line style="stroke:#181818;stroke-width:1.0;" x1="664.9775" x2="901.5146" y1="1374.6484" y2="1374.6484"/><text fill="#000000" font-family="sans-serif" font-size="13" lengthAdjust="spacing" textLength="186.7607" x="671.9775" y="1369.5825">Forward termination request</text><line style="stroke:#181818;stroke-width:1.0;" x1="907.5146" x2="949.5146" y1="1403.7813" y2="1403.7813"/><line style="stroke:#181818;stroke-width:1.0;" x1="949.5146" x2="949.5146" y1="1403.7813" y2="1416.7813"/><line style="stroke:#181818;stroke-width:1.0;" x1="908.5146" x2="949.5146" y1="1416.7813" y2="1416.7813"/><polygon fill="#181818" points="918.5146,1412.7813,908.5146,1416.7813,918.5146,1420.7813,914.5146,1416.7813" style="stroke:#181818;stroke-width:1.0;"/><text fill="#000000" font-family="sans-serif" font-size="13" lengthAdjust="spacing" textLength="142.2129" x="914.5146" y="1398.7153">Terminate permission</text><path d="M224,1429.7813 L224,1499.7813 L722,1499.7813 L722,1439.7813 L712,1429.7813 L224,1429.7813 " fill="#FEFFDD" style="stroke:#181818;stroke-width:0.5;"/><path d="M712,1429.7813 L712,1439.7813 L722,1439.7813 L712,1429.7813 " fill="#FEFFDD" style="stroke:#181818;stroke-width:0.5;"/><text fill="#000000" font-family="sans-serif" font-size="13" lengthAdjust="spacing" textLength="292.0747" x="230" y="1446.8481">How to handle deletion of MQTT credentials?</text><text fill="#000000" font-family="sans-serif" font-size="13" lengthAdjust="spacing" textLength="412.0073" x="230" y="1461.981">Cannot do it right away, as AIIDA needs to receive termination.</text><text fill="#000000" font-family="sans-serif" font-size="13" lengthAdjust="spacing" textLength="472.8242" x="230" y="1477.1138">Maybe as a scheduled task, and if AIIDA does not honor the termination,</text><text fill="#000000" font-family="sans-serif" font-size="13" lengthAdjust="spacing" textLength="477.8262" x="230" y="1492.2466">it will be denied access when publishing via MQTT, and could act on that.</text><path d="M19,1510.3125 L19,1535.3125 L935,1535.3125 L935,1520.3125 L925,1510.3125 L19,1510.3125 " fill="#FEFFDD" style="stroke:#181818;stroke-width:0.5;"/><path d="M925,1510.3125 L925,1520.3125 L935,1520.3125 L925,1510.3125 " fill="#FEFFDD" style="stroke:#181818;stroke-width:0.5;"/><text fill="#000000" font-family="sans-serif" font-size="13" lengthAdjust="spacing" textLength="604.5698" x="170.5205" y="1527.3794">Is a TERMINATION_RECEIVED or TERMINATED status message from AIIDA to EDDIE required?</text><!--SRC=[ZLRVR-9647xtNp7AmoadKIBryTJUoMUS1WL83dpfmo55YptWBMQNxgwX_FUTMTlO3kJQI54Sx_puvfjlPksaAn32yNWKGlnh3Ej27uD0f4uRY4hhz0uD20jHi1V6oLJkXN9m4uz6unWYRV26J-CtnzDlIG9VZTwYyUVJ_h5Fvm_288ZWbyyKu1D4XKote5KJFTLAOUfWLJgdrSrI2PL1Qb0uX3sQdRHMahN1lqkqBeZFWPwDpieK8Ph7OHAF1l0IJYWXFG8UK3aRA4qnz85AO_lOlmHXA6wvAgJDCGEduL6ijm9MleoWZa_cYrmVuTkSy6Lu9UiYdYMloTFhSrXbgoiCoJ4LwYvMZjBMxfp5eeDo3mgFdQg28AoTeXo95Ra6KL3fsGb4j_YZTFbI_TQ-6MUVOMtqxfm1_v6MAWv4uSuXwdT0Fs5TbEMYq1Xj0YmiGgRH0j5KsS89NMlErKx55Y6dZjYSdnwIvBdfX0S5NKZUzPAfXt0sMZo4Z_7hF8xYyKlJduuv4J17Lne5cN22IABEPEY4BEm0h2DHtI6fWWunQ05sQRjK2b0Rbcg5i2wBjImA2dcBmysmESUiIYP94WVA95O5VlJ1cKDoPbgwxlwiIwPNI6rOMy4EhHKRxDio6mikuFii_3g9MJRttoVtuyc4YtEbRTpWzY25Pxb2udj46NwEWuZUxGa2pJ8DqrgQdN1CX5vN5LBlZ5IRuEpOS1vLrdT_69xNhYolmAVGMKSABL9MTyEvtmYb9Ub_WFtn7EPI564KnSz9JmgjuPIWLGiWmqocWdlLZHn64-lBhHQQLCIYIl5Db5PKxw3owq6aHblx2SRhIcXUP2oAjJ0K6LpEr5CO7FXd7ulMKqQmfIWiKLuM6JU8jgayUAnUPd_HMgKfpiI93WaiUlSsnx1bUMCqhOO9lJG3EEQekdBkeo9QqhoZWNEJYBEdFNdMwvIxUCrcKQviQkJAxoJ7MLGb5gVtChtkKe-UQ5HgWvwT9ktzoQ2R4Vqld3vWFG2aWFu8s4iNQkHzFLxNDDh3a3QNcS43BNJRzNWNopn-UNhydqZcFkxFWFJ-_r7hVeufoWDVE1tEcwdncpn-xZcU9y4ZlEArLBU_zzOltwdjl7Gy4cxjnrxqQSEhDaTXhiQ_MdrIsxrFGFVE7J3-1rgIf3NU70KFT87DSdexIb-MAggsQQP1EZ1oazC87SLfu3yY_B3ptM2hbUCPxK8VBjLKd7WKQQU3PG6MlFUTi5iAGJpIJL65ELzykLQqI7WqEu46IoNvWYF5hHYpaXH5f2a9evxFwWE2jYhm7kHAgWJLDg1LmDrmkN33ItREAuTH9l5yEfw5oVXfrjwFXAXvVo7BIYrL5KH3zH75FPF4v9TpDb9DqFobtty1]--></g></svg>